<?xml version="1.0" standalone="no"?>
<!DOCTYPE svg PUBLIC "-//W3C//DTD SVG 20010904//EN"
 "http://www.w3.org/TR/2001/REC-SVG-20010904/DTD/svg10.dtd">
<svg version="1.0" xmlns="http://www.w3.org/2000/svg"
 width="1920.000000pt" height="1280.000000pt" viewBox="0 0 1920.000000 1280.000000"
 preserveAspectRatio="xMidYMid meet">

<g transform="translate(0.000000,1280.000000) scale(0.100000,-0.100000)"
fill="#000000" stroke="none">
<path d="M8118 11723 c-24 -6 -23 -9 16 -94 53 -118 171 -414 216 -544 74
-216 111 -369 117 -490 6 -125 -6 -183 -59 -289 -57 -113 -114 -191 -348 -476
-52 -63 -104 -128 -115 -143 l-21 -28 -194 185 c-106 102 -199 186 -206 186
-23 0 -32 -31 -22 -73 24 -110 13 -97 -424 462 -235 300 -438 559 -451 575
-20 25 -26 27 -45 17 -12 -6 -22 -16 -22 -21 0 -6 212 -281 471 -612 l471
-601 -6 -41 c-8 -52 -54 -143 -101 -201 l-37 -45 -112 1 c-61 0 -119 3 -128 7
-9 4 -70 86 -136 182 -202 298 -440 618 -660 888 -68 83 -128 152 -132 152 -4
0 -15 -9 -24 -19 -16 -18 -12 -25 116 -182 226 -278 528 -687 713 -966 l67
-101 -22 -99 c-12 -54 -24 -105 -26 -114 -2 -9 -36 -31 -75 -49 -58 -27 -87
-34 -158 -37 l-86 -5 -442 584 c-243 320 -449 592 -457 603 -15 20 -15 20 -37
-2 l-23 -22 195 -256 c573 -757 669 -885 664 -885 -3 0 -33 11 -67 25 -46 19
-64 22 -75 14 -7 -6 -13 -15 -13 -20 0 -5 58 -113 130 -241 126 -226 129 -233
107 -242 -25 -11 -172 -77 -386 -173 -291 -131 -456 -164 -601 -121 -161 48
-432 211 -763 460 -87 65 -162 116 -167 113 -6 -3 -14 -15 -20 -25 -9 -17 9
-33 152 -141 355 -265 658 -442 818 -475 171 -36 335 6 730 188 107 50 216 98
242 109 l47 18 27 -44 c14 -25 33 -45 41 -45 13 0 216 60 255 75 12 5 35 -16
92 -85 42 -50 82 -101 90 -113 7 -12 16 -60 19 -107 6 -93 39 -209 92 -326
l34 -74 -27 -58 c-51 -109 -30 -256 50 -346 45 -52 65 -65 126 -80 41 -11 43
-13 87 -110 67 -149 123 -242 193 -317 45 -49 71 -69 88 -69 45 0 39 28 -19
83 -77 74 -155 203 -223 367 l-23 55 41 42 c27 27 39 47 35 57 -13 32 -37 29
-73 -8 -29 -30 -42 -36 -77 -36 -60 0 -109 36 -143 106 -32 65 -38 157 -15
212 l14 33 18 -31 c20 -32 56 -41 65 -16 3 8 -17 58 -45 113 -112 224 -146
348 -138 498 9 153 63 322 140 438 62 91 126 127 293 163 97 20 291 23 354 5
115 -33 295 -138 443 -258 46 -37 62 -45 75 -37 26 17 25 31 -2 55 -14 13 -26
26 -26 31 0 4 30 8 68 8 83 0 151 -29 204 -88 66 -73 60 -150 -14 -199 -41
-27 -47 -43 -24 -62 16 -14 63 5 102 40 20 19 21 19 113 -47 202 -144 366
-333 428 -490 22 -58 27 -87 29 -179 2 -60 3 -113 3 -117 1 -5 10 -8 21 -8 28
0 40 37 40 123 0 140 -51 273 -157 414 -83 111 -252 262 -395 354 -34 22 -38
28 -38 67 0 166 -227 303 -405 244 l-40 -13 -100 67 c-112 75 -233 135 -313
154 -50 12 -59 18 -128 102 -41 49 -74 93 -74 98 0 6 29 58 65 116 36 59 65
111 65 117 0 6 -16 27 -35 47 l-36 36 38 50 c20 27 90 112 153 189 219 264
316 414 356 550 48 168 -7 447 -175 883 -94 245 -181 442 -195 441 -6 -1 -19
-3 -28 -6z m-342 -2009 l194 -186 -22 -37 c-12 -20 -32 -53 -45 -74 l-24 -38
-35 30 c-77 68 -195 111 -306 111 -38 0 -68 3 -68 6 0 3 9 19 20 34 40 56 72
161 78 253 2 48 7 87 10 87 2 0 92 -84 198 -186z m-115 -274 c87 -27 113 -47
154 -114 19 -32 35 -60 35 -62 0 -2 -22 -4 -49 -4 -27 0 -82 -6 -123 -14 -232
-44 -331 -179 -383 -521 -8 -55 -21 -122 -28 -148 l-13 -49 -83 96 c-46 53
-102 110 -126 127 -33 24 -46 41 -56 77 -28 100 -7 234 49 323 19 30 39 86 56
162 l28 118 126 -1 c82 0 145 5 177 14 72 21 162 19 236 -4z m-921 -352 c53
-1 107 5 144 16 32 9 60 16 62 14 2 -2 -4 -24 -13 -48 -32 -91 -17 -255 31
-349 16 -31 16 -31 -8 -41 -63 -24 -139 -41 -145 -34 -9 10 -261 462 -261 468
0 1 24 -3 53 -11 28 -8 90 -15 137 -15z"/>
<path d="M11537 11278 c-246 -492 -366 -799 -393 -1006 -6 -46 -10 -53 -33
-58 -139 -29 -191 -54 -254 -124 -59 -66 -88 -142 -96 -252 l-6 -86 -60 -44
c-73 -55 -137 -118 -178 -177 -32 -47 -67 -145 -67 -190 0 -26 20 -110 34
-141 5 -11 -8 -22 -46 -40 -68 -31 -187 -148 -222 -218 -41 -81 -59 -166 -52
-242 l6 -66 -68 -59 c-160 -141 -224 -246 -230 -377 -3 -54 1 -94 13 -133 l18
-55 -53 -113 c-139 -295 -148 -434 -35 -587 26 -36 43 -50 61 -50 34 0 31 33
-6 80 -105 132 -96 247 41 542 l60 130 -22 64 c-54 159 18 316 215 469 l76 60
-7 40 c-5 22 -8 70 -7 108 1 88 50 191 128 269 55 55 145 108 182 108 43 0 46
23 12 90 -26 51 -33 74 -32 121 2 109 83 224 234 329 l65 46 6 100 c7 116 33
187 90 243 42 43 128 83 189 89 l46 4 13 -67 c17 -96 80 -280 146 -430 31 -71
56 -137 55 -145 -7 -53 3 -160 21 -213 25 -77 54 -126 115 -200 l47 -58 -77
-78 -78 -79 -87 -11 c-115 -15 -233 -53 -328 -107 l-77 -45 -46 20 c-41 18
-46 23 -54 65 -19 94 44 247 129 311 38 30 43 54 20 95 -17 30 -19 98 -5 136
6 15 24 44 40 64 34 43 38 65 13 74 -21 9 -77 -44 -103 -99 -22 -46 -27 -133
-9 -183 10 -28 8 -33 -31 -73 -23 -24 -55 -69 -70 -100 -32 -63 -55 -173 -47
-224 5 -33 5 -33 -41 -40 -136 -20 -251 -128 -252 -237 0 -51 15 -87 57 -129
63 -65 143 -87 143 -39 0 14 -15 27 -50 45 -86 44 -112 115 -67 187 55 90 186
136 281 99 27 -11 28 -13 12 -30 -19 -21 -12 -51 12 -51 8 0 51 23 95 51 169
109 300 151 472 150 138 0 273 -32 395 -93 73 -37 90 -51 122 -98 76 -113 138
-317 138 -454 0 -136 -44 -270 -145 -441 -31 -52 -57 -95 -58 -95 -1 0 -79
-13 -172 -29 -214 -37 -309 -67 -458 -144 l-118 -60 -28 27 c-51 49 -98 11
-50 -40 27 -29 28 -29 -81 -94 -87 -52 -189 -90 -241 -90 -41 0 -85 45 -112
115 -20 51 -27 60 -48 60 -21 0 -24 -4 -23 -32 3 -51 48 -137 88 -168 88 -67
236 -31 439 107 51 35 62 38 85 30 74 -29 132 -25 132 8 0 22 -10 30 -47 36
-15 3 -29 7 -31 8 -5 6 82 52 169 88 102 43 167 60 369 93 246 41 332 75 412
164 49 55 71 111 70 187 -1 103 -34 166 -70 130 -12 -11 -12 -21 -3 -47 15
-44 14 -133 -3 -173 -24 -58 -141 -154 -162 -133 -4 4 18 60 49 125 57 118 97
245 97 311 0 30 10 47 63 105 l62 68 75 -46 c107 -66 353 -140 403 -120 8 3
42 -6 75 -20 108 -46 314 -113 452 -147 203 -50 314 -47 538 17 20 6 22 3 22
-33 0 -22 -11 -62 -26 -91 -40 -81 -118 -143 -281 -223 -140 -69 -143 -71
-180 -130 -131 -208 -184 -249 -322 -249 -66 0 -160 23 -253 61 -38 15 -75 26
-82 23 -7 -3 -21 -22 -30 -42 -48 -101 -152 -215 -244 -269 -106 -62 -311
-102 -463 -89 l-77 6 -30 -53 c-72 -127 -234 -196 -461 -197 -95 0 -111 -3
-194 -36 -237 -95 -486 -97 -719 -7 -204 80 -433 297 -468 445 -11 42 -10 56
5 94 19 51 15 74 -15 74 -15 0 -27 -13 -42 -47 -44 -100 6 -233 144 -378 292
-309 729 -400 1127 -236 66 28 84 31 180 31 127 0 247 26 333 72 54 29 168
136 168 159 0 5 37 9 83 9 330 0 542 100 689 324 21 33 40 61 42 63 2 2 45
-11 97 -28 70 -24 117 -34 185 -37 170 -8 244 36 360 215 59 91 81 117 107
125 74 26 229 113 288 162 88 73 129 144 137 237 l7 71 120 43 c162 57 383
149 622 260 198 91 220 107 194 139 -10 11 -46 -2 -194 -71 -460 -215 -845
-355 -1055 -385 -99 -13 -190 0 -412 63 -127 35 -366 121 -382 137 -4 4 2 37
13 72 31 100 49 242 49 392 0 164 5 157 -143 188 -53 11 -114 28 -135 39 -52
26 -136 120 -157 174 -13 35 -25 47 -73 72 -73 38 -175 134 -202 189 -11 24
-29 89 -40 144 -25 131 -29 138 -86 146 -118 16 -341 0 -478 -35 -43 -11 -80
-18 -83 -16 -2 2 -26 56 -54 118 -112 253 -176 491 -163 604 21 190 150 517
391 995 122 242 132 266 116 277 -9 7 -22 13 -28 13 -7 0 -73 -123 -148 -272z
m422 -1744 c34 -7 42 -26 56 -129 4 -27 15 -72 26 -99 10 -28 17 -52 14 -54
-2 -2 -35 2 -73 8 -76 14 -374 9 -427 -7 -23 -7 -30 -15 -30 -34 0 -22 4 -24
40 -22 334 16 341 16 425 -1 106 -22 133 -33 240 -102 83 -53 88 -59 128 -137
63 -123 76 -186 75 -357 0 -85 -7 -175 -15 -217 -15 -73 -10 -103 17 -103 23
0 33 29 51 151 16 110 15 272 -2 366 l-6 33 46 -20 c34 -16 208 -60 233 -60 2
0 3 -50 3 -111 0 -133 -22 -293 -54 -386 l-22 -68 -50 2 c-27 1 -86 14 -132
29 -81 26 -203 91 -210 112 -1 5 22 30 52 54 35 28 55 51 55 65 2 45 -34 35
-112 -30 -26 -22 -49 -38 -51 -36 -2 2 -11 37 -21 78 -59 246 -212 365 -495
386 -106 8 -240 27 -240 35 0 3 21 26 46 50 26 25 75 78 110 119 65 76 79 113
47 126 -18 6 -39 -12 -77 -66 l-16 -23 -26 25 c-84 79 -154 245 -145 346 4 43
417 101 540 77z"/>
<path d="M12248 10849 c-170 -274 -186 -304 -170 -315 9 -8 22 -14 28 -14 17
0 376 586 372 607 -2 10 -12 19 -23 21 -17 2 -53 -49 -207 -299z"/>
<path d="M14284 9036 c-169 -162 -347 -353 -342 -368 15 -44 35 -29 279 215
217 217 244 247 235 266 -5 12 -14 21 -20 21 -6 0 -74 -60 -152 -134z"/>
<path d="M7745 8757 c-59 -28 -107 -80 -126 -134 -18 -53 -16 -156 6 -231 28
-98 36 -97 154 18 63 61 145 129 216 176 63 42 115 82 115 89 0 19 -30 42 -95
71 -87 40 -200 45 -270 11z m230 -61 l40 -18 -25 -16 c-73 -49 -170 -128 -232
-187 -38 -37 -72 -64 -76 -61 -9 10 -16 150 -8 180 9 37 56 87 101 108 49 23
140 20 200 -6z"/>
<path d="M8697 8733 c-4 -3 -7 -14 -7 -24 0 -13 14 -22 48 -32 50 -16 82 -8
82 19 0 26 -103 58 -123 37z"/>
<path d="M10601 8587 c-29 -36 22 -64 89 -49 28 6 35 12 35 32 0 23 -4 25 -56
28 -39 2 -59 -1 -68 -11z"/>
<path d="M11423 8515 c-29 -8 -71 -24 -93 -35 -62 -31 -54 -54 41 -125 79 -59
165 -143 264 -258 59 -70 74 -69 104 6 60 147 39 283 -55 366 -69 61 -152 75
-261 46z m202 -76 c53 -37 79 -84 83 -153 4 -60 -12 -147 -26 -145 -4 0 -33
32 -65 69 -52 63 -157 161 -217 203 -13 9 -22 19 -19 21 3 3 30 12 60 21 68
19 142 12 184 -16z"/>
<path d="M8863 8405 c-76 -81 -96 -141 -98 -284 l-1 -115 -47 -41 c-26 -23
-47 -48 -47 -57 0 -30 32 -30 76 2 l42 30 22 -73 c70 -230 73 -287 17 -312
-18 -7 -40 -16 -50 -19 -12 -4 -17 -14 -15 -28 4 -32 48 -35 97 -7 82 46 87
122 21 346 -41 142 -43 156 -33 204 9 46 8 54 -9 71 -17 17 -19 28 -13 66 10
71 39 126 95 186 34 36 48 59 44 70 -12 31 -47 17 -101 -39z"/>
<path d="M8543 8443 c-7 -2 -13 -21 -13 -42 0 -20 -7 -47 -16 -60 -14 -19 -24
-22 -61 -19 -36 2 -48 -1 -57 -15 -25 -41 73 -64 135 -31 49 25 79 130 47 162
-13 13 -16 13 -35 5z"/>
<path d="M7932 8408 c-15 -15 -15 -51 -1 -101 12 -44 52 -67 118 -67 28 0 48
-8 70 -25 33 -29 87 -129 97 -181 3 -18 12 -38 19 -44 15 -12 41 -4 48 14 8
20 -37 140 -73 196 -43 67 -79 91 -150 99 -33 4 -62 10 -65 13 -4 3 -9 28 -13
54 -7 50 -26 66 -50 42z"/>
<path d="M10603 8293 c-9 -3 -11 -26 -6 -82 7 -98 -9 -174 -43 -196 -15 -10
-24 -25 -24 -41 0 -15 -20 -58 -44 -98 -111 -177 -134 -278 -86 -364 23 -41
50 -59 70 -47 15 9 12 31 -10 67 -32 53 -26 111 19 204 21 43 46 88 55 99 l16
20 12 -20 c22 -38 78 -87 95 -83 30 6 26 36 -11 79 -50 59 -59 89 -36 131 35
66 51 132 51 208 0 109 -15 141 -58 123z"/>
<path d="M10863 8190 c-80 -49 -38 -165 47 -130 59 24 79 91 40 130 -25 25
-46 25 -87 0z"/>
<path d="M11303 8180 c-37 -15 -54 -52 -52 -112 1 -29 -3 -64 -10 -76 -14 -27
-86 -76 -155 -107 -30 -13 -57 -29 -61 -35 -8 -14 13 -40 32 -40 32 0 149 65
195 108 54 50 72 98 62 161 -7 44 -13 39 72 56 19 4 25 11 22 28 -2 18 -10 22
-43 24 -22 1 -50 -2 -62 -7z"/>
<path d="M7957 7983 c-4 -3 -7 -20 -7 -37 0 -17 -6 -42 -13 -56 -11 -21 -21
-25 -57 -26 -69 -2 -70 -3 -70 -24 0 -39 83 -54 139 -25 64 33 85 175 26 175
-7 0 -15 -3 -18 -7z"/>
<path d="M7483 7735 c-5 -8 -6 -37 -3 -63 4 -42 8 -47 30 -47 22 0 25 5 28 42
5 66 -32 110 -55 68z"/>
<path d="M11347 7719 c-11 -6 -25 -25 -32 -42 -40 -95 80 -137 130 -44 18 34
19 39 5 64 -12 21 -24 29 -50 30 -19 2 -43 -2 -53 -8z"/>
<path d="M9580 7661 c-61 -65 -92 -126 -129 -251 -63 -218 -137 -357 -245
-458 -89 -83 -149 -105 -274 -100 -76 2 -95 0 -102 -12 -15 -27 4 -40 72 -51
50 -8 80 -7 137 5 212 44 369 242 468 589 34 120 63 177 123 239 57 59 64 88
23 88 -19 0 -40 -14 -73 -49z"/>
<path d="M12632 7648 c-6 -6 -12 -18 -12 -25 0 -25 -48 -108 -82 -140 -18 -18
-55 -42 -82 -54 -42 -18 -63 -21 -156 -18 l-107 4 -64 -56 c-142 -125 -248
-172 -382 -172 -67 1 -90 -3 -94 -13 -16 -41 69 -63 176 -46 94 16 229 86 314
163 l68 61 63 -7 c123 -13 245 26 318 102 45 46 91 142 86 180 -3 30 -26 41
-46 21z"/>
<path d="M7790 7545 c-46 -21 -80 -54 -80 -77 0 -32 28 -31 77 1 68 45 160 39
217 -14 15 -14 34 -25 42 -25 8 0 62 -32 120 -71 169 -113 254 -144 328 -119
47 15 86 47 86 71 0 31 -23 32 -75 4 -72 -38 -122 -24 -268 72 l-68 45 53 32
c35 20 54 39 56 54 4 27 -23 41 -47 23 -32 -23 -96 -51 -120 -51 -13 0 -53 15
-89 32 -79 39 -175 48 -232 23z"/>
<path d="M8647 7443 c-24 -24 12 -71 75 -98 81 -33 208 -3 208 49 0 31 -28 41
-51 20 -41 -37 -140 -26 -178 20 -14 16 -42 21 -54 9z"/>
<path d="M10275 7344 c-21 -10 -57 -13 -120 -12 -84 3 -90 2 -90 -17 0 -33 41
-46 135 -42 101 4 153 25 148 60 -4 27 -32 31 -73 11z"/>
<path d="M8644 7215 c-3 -8 8 -48 25 -89 17 -40 34 -99 37 -131 7 -60 23 -77
50 -54 13 10 15 25 11 65 -6 55 -50 178 -75 207 -18 21 -41 22 -48 2z"/>
<path d="M7872 6882 c-27 -18 -8 -45 43 -62 28 -9 111 -47 185 -83 169 -83
273 -112 382 -104 92 6 175 40 231 95 67 65 37 109 -34 49 -75 -64 -123 -82
-224 -82 -112 1 -179 22 -366 115 -138 70 -193 88 -217 72z"/>
<path d="M7729 6719 c-9 -18 -5 -26 37 -65 52 -49 119 -90 204 -125 208 -85
373 -236 432 -396 25 -68 41 -88 62 -80 54 21 -37 214 -157 331 -76 74 -162
129 -318 205 -75 36 -144 78 -176 105 -58 52 -68 55 -84 25z"/>
<path d="M7473 6655 c-187 -34 -361 -123 -554 -283 l-96 -80 -64 1 c-79 1
-135 -24 -198 -85 -69 -69 -95 -128 -97 -225 l-2 -82 -63 -58 c-120 -109 -219
-230 -249 -303 -10 -24 -35 -41 -133 -90 -66 -33 -125 -60 -131 -60 -6 0 -48
53 -93 118 -405 582 -849 921 -1210 922 -67 0 -236 -27 -380 -61 -91 -21 -93
-22 -93 -50 0 -17 5 -29 13 -29 7 0 71 13 143 29 176 40 285 55 356 47 218
-22 447 -150 694 -388 96 -93 304 -328 304 -345 0 -4 -18 -34 -40 -67 -171
-263 -207 -580 -97 -846 90 -218 231 -371 428 -465 106 -50 215 -75 351 -82
l116 -6 36 -126 c109 -388 131 -682 70 -926 -8 -33 -34 -98 -57 -145 -34 -69
-58 -101 -132 -175 -87 -86 -248 -221 -402 -335 l-73 -54 22 -23 21 -23 36 27
c304 226 501 407 566 516 136 233 150 610 39 1052 -29 113 -105 344 -139 422
-18 39 -20 54 -12 62 7 5 64 35 127 66 l115 58 61 -12 c88 -16 240 -14 359 6
l103 16 40 -34 c55 -47 122 -69 208 -69 116 0 194 38 240 116 23 38 29 42 87
53 235 45 517 166 517 221 0 36 -28 33 -107 -13 -98 -56 -191 -93 -307 -122
-166 -41 -158 -42 -180 11 -10 25 -29 52 -43 61 -22 15 -26 15 -40 1 -14 -14
-13 -20 11 -60 31 -53 33 -82 7 -124 -30 -49 -83 -76 -159 -82 -78 -5 -141 9
-179 42 l-27 23 38 7 c42 8 56 30 34 52 -13 13 -24 13 -94 -5 -203 -52 -389
-65 -512 -36 -133 32 -311 134 -418 240 -81 82 -89 112 -88 325 1 150 3 172
27 245 15 44 39 101 54 127 62 105 191 238 340 350 39 30 53 47 51 62 -4 29
-33 31 -65 6 l-28 -22 -3 25 c-8 67 51 179 118 223 30 20 58 29 99 32 50 4 59
1 83 -23 15 -14 30 -39 33 -55 8 -36 27 -52 50 -44 23 9 15 76 -14 115 l-21
28 48 41 c26 23 79 65 117 94 201 150 370 215 568 219 97 2 102 3 105 24 6 44
-89 55 -235 28z m-1775 -1122 c16 -21 48 -66 71 -101 34 -51 40 -66 31 -77
-33 -40 25 -59 93 -30 20 8 38 15 40 15 2 0 -3 -35 -11 -77 -16 -91 -10 -195
15 -273 35 -111 181 -225 396 -310 32 -12 85 -37 119 -55 l60 -33 -111 -57
c-130 -68 -188 -113 -178 -139 5 -12 16 -16 39 -14 31 3 33 1 60 -67 15 -38
27 -74 28 -79 0 -17 -195 3 -286 30 -145 42 -236 95 -339 199 -104 104 -157
191 -206 335 -58 173 -52 371 18 550 27 69 112 220 124 220 4 0 20 -17 37 -37z"/>
<path d="M11444 6529 c-66 -19 -44 -74 23 -58 148 34 361 -28 572 -168 89 -59
264 -226 315 -301 l29 -43 -26 -27 c-29 -31 -57 -91 -50 -109 10 -27 49 -14
66 22 73 153 288 32 305 -172 5 -67 -2 -77 -33 -43 -11 12 -28 20 -39 18 -41
-6 -28 -36 50 -120 224 -239 288 -380 288 -633 1 -154 -18 -260 -57 -330 -59
-105 -290 -232 -482 -266 -124 -21 -291 10 -510 95 -65 26 -125 44 -132 42
-25 -10 -14 -45 19 -62 30 -15 31 -17 14 -30 -34 -24 -122 -37 -177 -25 -67
15 -100 33 -138 76 -45 52 -45 100 1 158 32 40 31 67 -1 67 -18 0 -53 -31 -84
-74 -13 -18 -17 -17 -111 18 -330 123 -518 270 -576 449 -9 30 -16 38 -33 35
-58 -8 -8 -143 91 -250 34 -36 92 -86 130 -111 90 -60 264 -145 385 -188 96
-34 98 -34 108 -74 22 -83 126 -154 250 -171 58 -8 162 18 206 52 l32 25 104
-35 c120 -40 255 -66 347 -66 57 0 74 -5 135 -39 106 -59 210 -135 209 -151
-1 -8 -27 -98 -58 -200 -129 -422 -212 -821 -223 -1062 -9 -210 8 -274 115
-418 54 -74 316 -342 385 -394 35 -26 36 -27 62 -10 l26 17 -63 56 c-116 103
-220 205 -294 289 -157 179 -180 239 -171 452 6 143 28 287 78 509 37 168 128
503 139 515 4 4 93 10 197 12 365 8 692 35 828 70 101 26 99 24 92 118 -11
158 -80 446 -153 640 -19 50 -64 153 -101 229 -42 86 -63 141 -57 145 6 4 68
49 138 100 375 274 714 470 895 517 124 32 234 11 468 -90 70 -30 132 -50 136
-46 5 5 7 19 5 32 -2 18 -22 31 -98 64 -226 100 -357 130 -472 110 -220 -39
-607 -260 -1066 -608 -238 -181 -204 -168 -291 -116 -40 24 -102 66 -138 94
-62 47 -68 55 -94 128 -30 83 -105 204 -187 301 -46 53 -49 60 -40 87 6 17 8
60 6 97 -9 153 -113 276 -249 297 -42 6 -50 12 -90 67 -208 287 -570 500 -844
497 -44 0 -94 -5 -111 -10z m1648 -1568 c97 -65 201 -116 222 -108 9 4 16 14
17 24 0 18 42 57 73 69 13 5 30 -24 85 -137 112 -234 188 -482 227 -737 15
-97 15 -115 3 -123 -36 -22 -258 -53 -503 -69 -138 -9 -526 -14 -526 -7 0 1 9
29 19 62 15 47 24 61 42 65 14 4 25 14 27 27 3 20 -9 33 -98 102 l-25 20 35
12 c82 29 189 92 235 136 96 95 128 226 105 436 -20 185 -26 277 -18 277 4 0
40 -22 80 -49z"/>
<path d="M11237 6495 c-30 -38 -70 -61 -169 -98 -127 -48 -191 -88 -269 -166
-85 -85 -149 -185 -185 -291 -30 -87 -30 -165 0 -165 24 0 31 15 45 90 17 92
80 211 158 295 83 90 137 125 275 180 122 48 180 85 203 131 33 63 -12 82 -58
24z"/>
<path d="M7372 6220 c-24 -5 -82 -21 -130 -36 -54 -17 -121 -30 -177 -33 -77
-5 -90 -9 -93 -25 -6 -28 15 -36 95 -36 52 0 103 9 192 35 153 44 222 46 293
8 43 -24 50 -25 64 -12 22 22 9 43 -45 72 -54 30 -134 41 -199 27z"/>
<path d="M7760 6198 c-53 -41 -82 -91 -78 -138 3 -30 7 -35 28 -35 21 0 26 6
31 37 7 43 27 69 76 99 24 15 33 27 31 43 -5 33 -40 31 -88 -6z"/>
<path d="M6658 6106 c-23 -48 -19 -76 10 -76 23 0 68 79 59 103 -12 33 -46 19
-69 -27z"/>
<path d="M7970 6061 c-50 -16 -89 -41 -128 -86 -46 -53 -56 -80 -36 -100 15
-14 44 -10 44 6 0 5 18 29 41 54 46 50 106 77 164 73 32 -3 40 1 43 16 8 39
-59 58 -128 37z"/>
<path d="M8530 6045 c-23 -28 -6 -149 35 -255 62 -158 58 -240 -16 -324 -43
-49 -46 -76 -8 -76 26 0 79 54 104 107 40 82 32 170 -34 353 -22 59 -31 101
-29 136 1 28 -2 56 -6 62 -10 16 -31 15 -46 -3z"/>
<path d="M7234 6015 c-9 -23 -3 -31 51 -67 37 -25 57 -48 78 -90 29 -60 45
-69 67 -43 22 27 -43 140 -104 182 -52 35 -83 42 -92 18z"/>
<path d="M12152 5870 c-66 -74 -130 -113 -192 -117 -25 -1 -63 -9 -84 -18 -30
-13 -48 -14 -93 -5 -84 15 -93 14 -93 -15 0 -20 7 -26 43 -36 54 -16 52 -14
33 -41 -19 -27 -21 -64 -3 -71 16 -7 -24 -42 -78 -67 -66 -32 -144 -26 -245
16 -208 89 -285 107 -347 83 -41 -15 -83 -59 -83 -86 0 -39 28 -39 66 -2 54
53 104 48 274 -26 118 -51 145 -59 212 -63 108 -6 163 14 244 90 66 62 79 93
43 106 -19 8 -19 8 -2 24 10 8 50 23 90 31 91 20 155 53 220 112 68 60 99 110
83 130 -20 24 -32 18 -88 -45z"/>
<path d="M12494 5805 c-8 -21 24 -105 43 -112 8 -3 21 1 29 9 22 22 -12 112
-44 116 -13 2 -25 -3 -28 -13z"/>
<path d="M6946 5788 c-35 -33 -40 -60 -15 -91 29 -38 80 -37 120 2 34 34 37
63 9 91 -27 27 -82 26 -114 -2z"/>
<path d="M10680 5628 c0 -54 110 -198 151 -198 36 0 32 28 -11 77 -23 27 -53
69 -66 96 -19 37 -30 47 -49 47 -19 0 -25 -5 -25 -22z"/>
<path d="M10515 5576 c-56 -96 -60 -192 -14 -347 22 -75 30 -124 30 -177 0
-79 15 -101 47 -69 26 26 19 126 -16 258 -41 150 -42 207 -1 288 33 65 33 91
0 91 -13 0 -29 -15 -46 -44z"/>
<path d="M7964 5565 c-10 -26 3 -42 40 -49 22 -4 50 -21 71 -42 38 -38 68 -41
73 -9 3 25 -51 83 -95 101 -43 18 -82 18 -89 -1z"/>
<path d="M12102 5508 c-21 -21 -14 -77 13 -103 28 -29 85 -34 109 -9 24 23 20
71 -9 99 -27 27 -91 35 -113 13z"/>
<path d="M9535 5499 c-72 -14 -193 -56 -240 -82 -43 -24 -50 -43 -23 -60 12
-8 32 -3 85 20 112 52 184 67 318 67 98 1 134 -4 195 -23 146 -45 261 -114
356 -213 266 -277 518 -751 592 -1114 59 -287 36 -397 -128 -604 -45 -58 -89
-119 -96 -137 -20 -47 -17 -112 6 -150 35 -59 75 -32 51 34 -21 58 -7 94 85
210 155 197 189 304 166 515 -39 346 -212 748 -475 1101 -149 201 -240 284
-392 360 -114 57 -204 79 -335 83 -63 2 -137 -1 -165 -7z"/>
<path d="M7164 5469 c-129 -17 -215 -69 -236 -142 -17 -63 -25 -69 -82 -65
-46 3 -51 1 -54 -19 -4 -27 29 -43 87 -43 51 0 85 29 101 85 21 76 79 110 214
124 40 4 62 12 70 23 21 35 -16 49 -100 37z"/>
<path d="M11109 5433 c-14 -34 1 -101 32 -142 11 -15 50 -49 86 -77 36 -27 83
-73 104 -103 33 -46 39 -62 39 -105 0 -41 6 -58 28 -84 51 -62 80 -11 52 90
-12 43 -4 65 42 114 33 36 34 67 1 72 -14 2 -31 -9 -54 -36 l-33 -39 -66 66
c-36 36 -89 87 -117 112 -49 44 -52 50 -55 100 -3 47 -6 54 -25 57 -17 3 -26
-4 -34 -25z"/>
<path d="M6491 5383 c-80 -92 -111 -191 -91 -287 15 -72 54 -124 121 -161 46
-25 67 -30 146 -33 158 -7 172 7 104 106 -53 79 -122 219 -161 330 -40 112
-56 118 -119 45z m79 -115 c25 -69 97 -216 129 -263 12 -16 21 -34 21 -39 0
-16 -125 1 -167 22 -105 54 -128 186 -51 304 16 27 33 46 38 43 4 -2 17 -33
30 -67z"/>
<path d="M7983 5403 c-8 -3 -13 -23 -13 -46 -1 -67 -30 -117 -111 -188 -41
-35 -108 -98 -151 -140 -63 -62 -79 -85 -92 -129 -14 -47 -14 -56 -2 -68 20
-20 44 -8 52 25 13 57 67 123 174 212 116 97 150 135 175 194 18 43 20 118 3
135 -13 13 -16 13 -35 5z"/>
<path d="M7603 5375 c-3 -9 9 -45 27 -80 26 -52 31 -72 29 -115 -3 -41 0 -55
13 -64 30 -19 43 8 43 87 -1 54 -6 82 -23 113 -36 70 -75 95 -89 59z"/>
<path d="M8913 5341 c-101 -37 -186 -112 -267 -238 -24 -38 -92 -165 -151
-283 -59 -118 -149 -287 -200 -375 -120 -208 -147 -263 -179 -363 -42 -133
-34 -267 22 -395 23 -52 46 -67 68 -46 12 13 10 25 -17 88 -58 139 -49 278 29
445 21 45 81 155 134 246 53 91 146 266 208 390 127 254 164 313 244 388 66
63 127 92 207 99 61 6 86 22 75 48 -8 22 -108 19 -173 -4z"/>
<path d="M8498 5340 c-13 -8 -15 -20 -11 -63 7 -71 -9 -103 -106 -209 -105
-114 -141 -208 -83 -216 14 -2 24 3 28 15 20 61 36 86 105 163 42 47 86 103
98 125 41 77 19 213 -31 185z"/>
<path d="M11879 5254 c-18 -22 9 -70 85 -152 83 -89 121 -106 212 -98 l72 7
17 -46 c17 -44 45 -60 60 -34 12 19 -5 78 -32 110 l-27 32 -76 -7 c-72 -6 -78
-5 -121 22 -25 16 -66 58 -92 93 -75 102 -74 101 -98 73z"/>
<path d="M9209 5155 c-40 -91 -33 -240 13 -269 33 -20 42 5 28 76 -11 55 -10
71 4 123 26 89 25 109 -2 113 -18 3 -26 -5 -43 -43z"/>
<path d="M7245 5155 c-48 -48 -22 -115 44 -115 40 0 91 47 91 83 0 57 -89 79
-135 32z"/>
<path d="M12548 5108 c-8 -7 -34 -49 -57 -93 -51 -96 -114 -185 -198 -282 -39
-45 -61 -78 -57 -87 17 -44 223 -58 305 -20 99 46 155 137 147 242 -4 63 -57
188 -97 230 -26 26 -23 25 -43 10z m62 -171 c11 -31 20 -71 20 -90 0 -55 -39
-118 -93 -151 -42 -26 -59 -30 -122 -30 -40 -1 -76 2 -80 5 -3 4 25 45 62 92
38 47 91 123 118 170 57 97 62 97 95 4z"/>
<path d="M11309 4944 c-11 -13 -10 -20 5 -42 40 -61 70 -140 75 -197 6 -56 8
-60 31 -60 24 0 25 2 24 71 0 59 -6 83 -31 135 -31 63 -66 109 -82 109 -5 0
-14 -7 -22 -16z"/>
<path d="M11706 4928 c-23 -33 -20 -56 13 -89 75 -75 178 7 106 85 -32 35 -96
37 -119 4z"/>
<path d="M9441 4840 c-79 -34 -92 -43 -89 -64 4 -26 32 -26 98 -1 154 58 322
-82 390 -327 11 -40 20 -75 20 -78 0 -3 -28 -5 -62 -5 -61 0 -63 -1 -63 -25 0
-23 5 -25 55 -31 59 -6 100 -23 100 -40 0 -22 81 -183 117 -232 21 -29 95
-112 165 -185 177 -184 180 -190 118 -226 l-33 -19 7 35 c4 25 2 39 -8 47 -24
20 -44 1 -56 -52 -22 -92 -82 -270 -110 -328 -65 -127 -182 -237 -340 -318
-128 -66 -226 -95 -288 -86 -126 19 -323 126 -432 234 -96 97 -172 259 -210
446 -20 102 -30 133 -44 138 -24 10 -40 -11 -38 -48 l3 -36 -30 15 c-31 17
-101 93 -101 110 1 6 12 25 26 41 l25 30 16 -22 c20 -30 63 -31 63 -3 0 12 -7
32 -16 45 -16 25 -15 26 64 110 78 82 172 213 207 285 24 51 113 93 193 90 31
-1 63 -2 70 -1 18 2 15 48 -4 55 -25 10 -140 7 -168 -4 -32 -12 -32 -9 0 71
60 148 89 192 157 235 38 25 48 50 22 60 -25 10 -58 -4 -103 -42 -48 -40 -77
-94 -146 -264 -93 -228 -146 -308 -326 -496 -133 -138 -171 -197 -177 -273 -5
-58 30 -134 65 -139 32 -5 37 21 13 71 -18 38 -27 77 -18 77 2 0 24 -20 49
-44 25 -24 66 -51 92 -61 41 -16 47 -22 57 -59 36 -143 86 -262 144 -346 l39
-55 3 -130 c3 -71 1 -148 -4 -169 l-9 -40 -129 -27 c-457 -94 -876 -239 -1131
-390 -137 -81 -280 -216 -318 -300 -33 -72 -80 -250 -121 -464 -34 -174 -34
-188 4 -198 17 -4 22 12 51 162 44 229 95 424 128 484 119 222 544 436 1181
596 l155 38 27 -56 c75 -159 270 -283 524 -333 132 -26 350 -21 469 11 168 45
307 140 382 261 l36 58 96 -34 c305 -110 619 -258 797 -375 121 -80 258 -205
306 -280 59 -92 82 -207 114 -564 9 -99 18 -181 19 -183 5 -4 56 20 56 27 0
37 -33 362 -45 447 -32 227 -62 292 -199 430 -211 211 -622 424 -1171 605
l-185 62 0 152 0 152 59 73 c75 92 111 159 155 290 l34 103 59 28 c34 16 62
24 67 19 5 -5 1 -38 -10 -80 -15 -60 -16 -73 -4 -80 39 -24 74 45 74 145 1 91
-37 151 -209 333 -83 89 -164 185 -191 229 -43 69 -47 78 -36 105 10 27 8 33
-22 66 -19 20 -37 53 -41 72 -15 70 -58 197 -87 254 -37 73 -126 164 -192 195
-54 27 -165 38 -205 21z m491 -1990 c3 -186 9 -205 55 -175 19 13 29 12 88 -6
l66 -20 -23 -41 c-34 -59 -138 -152 -210 -187 -127 -60 -206 -76 -383 -76
-132 1 -176 5 -250 23 -124 31 -260 99 -332 166 -67 62 -123 153 -103 166 23
14 93 21 104 10 17 -17 46 -11 55 13 5 12 12 50 16 85 4 34 8 62 10 62 1 0 32
-20 68 -44 115 -77 238 -111 345 -94 77 12 180 63 280 140 130 99 196 147 204
148 4 0 8 -77 10 -170z"/>
<path d="M7343 4673 c-7 -3 -13 -13 -13 -23 0 -9 6 -22 13 -27 19 -16 94 -22
106 -10 16 16 13 35 -6 45 -23 12 -84 21 -100 15z"/>
<path d="M11554 4445 c-10 -26 15 -45 60 -45 50 0 69 11 64 36 -3 16 -14 20
-61 22 -45 2 -59 0 -63 -13z"/>
<path d="M9508 4088 c-17 -15 -53 -103 -68 -168 -22 -102 -7 -170 50 -225 36
-34 37 -47 9 -84 -47 -63 3 -91 53 -29 46 56 43 97 -11 152 -31 31 -44 54 -48
82 -5 42 16 136 46 207 13 30 16 49 9 60 -11 20 -19 21 -40 5z"/>
<path d="M9094 4026 c-45 -20 -76 -63 -63 -87 13 -26 26 -24 66 11 43 39 58
38 97 -5 36 -38 48 -42 65 -21 28 33 -51 116 -109 116 -14 -1 -39 -7 -56 -14z"/>
<path d="M9795 3986 c-40 -18 -78 -60 -73 -83 5 -28 41 -27 68 2 33 35 73 33
102 -5 14 -20 30 -30 43 -28 49 7 13 87 -51 114 -40 17 -51 17 -89 0z"/>
<path d="M8196 3568 c-14 -8 -17 -17 -11 -47 15 -85 70 -143 194 -205 77 -39
99 -65 107 -124 7 -53 25 -72 50 -51 30 25 8 123 -37 168 -17 17 -66 49 -110
72 -88 46 -123 81 -139 138 -13 48 -29 63 -54 49z"/>
<path d="M9223 3455 c-15 -11 -15 -17 1 -66 58 -179 204 -277 349 -235 78 23
137 79 187 177 32 65 38 85 29 101 -9 17 -16 18 -67 11 -87 -12 -318 -6 -405
9 -60 11 -82 12 -94 3z m355 -79 c72 1 132 -2 132 -5 0 -12 -42 -76 -69 -104
-96 -104 -243 -71 -329 74 -12 20 -22 40 -22 44 0 3 35 3 78 -2 42 -4 137 -8
210 -7z"/>
<path d="M8604 3305 c-10 -24 14 -92 52 -152 37 -58 93 -103 160 -129 41 -16
47 -16 61 -1 23 23 11 41 -38 57 -66 22 -141 101 -166 175 -15 46 -25 61 -41
63 -13 2 -25 -3 -28 -13z"/>
<path d="M10421 3258 c-53 -116 -149 -188 -281 -209 -75 -13 -95 -29 -68 -56
21 -20 127 -4 203 31 119 54 246 221 213 279 -17 31 -38 17 -67 -45z"/>
</g>
</svg>
