<svg xmlns="http://www.w3.org/2000/svg" viewBox="0 0 750 500"><g id="freepik--Hearts--inject-41"><path d="M405.89,56.69c-2.11,5.69-8.15,9.58-8.15,9.58s-6.72-2.54-10-7.66c-2.71-4.28-1.81-9.31,1.6-10.74,4.9-2.07,7.12,6.6,7.12,6.6s.37-8.94,5.59-7.95C405.72,47.22,407.65,51.94,405.89,56.69Z" style="fill:#FFC727"></path><path d="M499.14,248.42c-37.07,74.77-125.26,119.14-125.26,119.14s-88.2-44.37-125.2-119.14c-30.88-62.36-11.32-129.77,37.41-144.49,69.86-21.12,87.79,59,87.79,59s17.92-80.12,87.85-59C510.46,118.65,530,186.06,499.14,248.42Z" style="fill:#FFC727"></path><path d="M499.14,248.42c-37.07,74.77-125.26,119.14-125.26,119.14s-88.2-44.37-125.2-119.14c-30.88-62.36-11.32-129.77,37.41-144.49,69.86-21.12,87.79,59,87.79,59s17.92-80.12,87.85-59C510.46,118.65,530,186.06,499.14,248.42Z" style="fill:#fff;opacity:0.5"></path><path d="M245.46,178c-1.24,5.94-6.63,10.69-6.63,10.69s-7-1.5-11-6.08c-3.32-3.82-3.19-8.92,0-10.86,4.53-2.77,8,5.46,8,5.46s-1-8.89,4.33-8.69C243.86,168.61,246.48,173,245.46,178Z" style="fill:#FFC727"></path><path d="M428.33,105c-7.59,5.16-18.44,4.64-18.44,4.64s-6-9-5.55-18.17c.41-7.64,5.93-13,11.39-11.82,7.83,1.75,3,14.37,3,14.37s8.28-10.68,13.84-4.88C436.42,93.2,434.65,100.71,428.33,105Z" style="fill:#FFC727"></path></g><g id="freepik--character-2--inject-41"><path d="M347,249.15c0,.24.36.21.37,0,.33-11.36,11.51-18.92,11.13-30.49a27,27,0,0,0-5-14.15,75.5,75.5,0,0,0-6.46-7.61l-.91-1.25a54.12,54.12,0,0,1-5.24-8.32,32,32,0,0,1-2.73-10.79c-.72-7.12-1-14.36-5.95-20C328,151.81,322,149.07,316,147.6c-13.61-3.31-29.8-.92-38.82,10.74a25.15,25.15,0,0,0-3.75,6.78s-7.92,5.76-10.31,15c-2.1,8.17,3.35,14.86,2.85,18.93-.44,3.59-2.64,6.66-4.09,9.9a62,62,0,0,0-4,8.48,22,22,0,0,0-.32,12.7,24.05,24.05,0,0,0,5.11,10.38,19.69,19.69,0,0,0,9.39,5.53c.85.25,1.71.48,2.56.71l.07,0c3,1.65,6.25,2.87,9.11,4.78a15.5,15.5,0,0,1,6.32,8.91c1,3.36,1.31,6.87,2.07,10.28a25.06,25.06,0,0,0,3.74,8.91,29.38,29.38,0,0,0,15.28,11.05c7.1,2.29,14.87,2.22,22.14.79,6.56-1.29,12.74-4.14,16.42-9.95a21.05,21.05,0,0,0,2.46-17.06c-1.05-3.45-3.16-6.43-4.82-9.59a16.91,16.91,0,0,1-2.12-10.19c1.51-11.71,12.8-20.77,9.82-33.31a28.88,28.88,0,0,0-4.09-8.92,28.66,28.66,0,0,1,6.57,14.26c.77,5.89-1.39,11.09-4.28,16.1S346.94,243.12,347,249.15Zm-74.43-3.51c-5-1.58-9.09-4.28-11.68-8.93a26.07,26.07,0,0,1-3.19-16.27,29.45,29.45,0,0,1,2.77-7.63l.09-.2a28.23,28.23,0,0,0-.94,5.24,31.52,31.52,0,0,0,3.23,16.53,29,29,0,0,0,9.94,11.32Z" style="fill:#263238"></path><path d="M316.49,251.83c25.7,44.9,65.9,119.63,72.83,133.31C394,394.42,343,424,340.75,417.25c-2.88-8.69-31.52-109.16-38.71-155.51C298.45,238.69,308.74,238.31,316.49,251.83Z" style="fill:#d3766a"></path><path d="M339.24,409.52c1.34,8.45,7.51,25.37,11.85,27.86s26.82,1.4,38.15,1.13,13.48-3.49,13.2-7.38-24.07-4.07-24.07-4.07,32,8.34,40,9.63,26.53,5.49,29-1.2c1.13-3-4-5.91-4-5.91s7.78,2.07,8.92-1.8c1.29-4.4-4.91-6.66-4.91-6.66s4.85.85,4.88-2.71c.05-8-30.24-11.14-30.24-11.14s23.39,10.7,24,4.18c.81-9-46.82-17.72-51.85-21.52a33.57,33.57,0,0,1-8.14-9.57Z" style="fill:#d3766a"></path><path d="M402.32,433.11a3.48,3.48,0,0,0-1.15-3,9.64,9.64,0,0,0-2.8-1.72,36.7,36.7,0,0,0-6.55-1.95c-4.49-1-9.09-1.72-13.67-2.79a55.26,55.26,0,0,1,14,1.24,25.59,25.59,0,0,1,6.74,2.39,9.07,9.07,0,0,1,2.84,2.33A3.6,3.6,0,0,1,402.32,433.11Z" style="fill:#263238"></path><path d="M443.42,429.58c-3.28-.72-6.52-1.57-9.76-2.42s-6.46-1.76-9.68-2.64l-9.64-2.77c-3.21-.92-6.43-1.84-9.67-2.72a74.16,74.16,0,0,1,10,1.53c3.3.67,6.55,1.53,9.78,2.43s6.44,1.89,9.6,3S440.34,428.24,443.42,429.58Z" style="fill:#263238"></path><path d="M412.15,410.91a64.49,64.49,0,0,1,9.19,1,84.79,84.79,0,0,1,9,2.09,82.24,82.24,0,0,1,8.75,3,65.81,65.81,0,0,1,8.32,4c-2.94-.94-5.81-2-8.74-2.89s-5.83-1.83-8.77-2.65-5.89-1.64-8.84-2.43S415.14,411.65,412.15,410.91Z" style="fill:#263238"></path><path d="M416.64,403.22a61.61,61.61,0,0,1,28.22,8.9c-4.73-1.56-9.34-3.21-14-4.66S421.41,404.63,416.64,403.22Z" style="fill:#263238"></path><path d="M256.77,353.68s1.52,17.05,3.75,41.72h0c.07.71.14,1.43.2,2.16,1.1,12.11,2.35,25.91,3.67,40.36h77.49c-5.56-43.42-10.35-80.84-10.76-84l0-.23Z" style="fill:#37474f"></path><path d="M206.63,437.93h77.84c0-.32,0-.57,0-.77s.05-.5.05-.5c.41-.22.81-.45,1.23-.66,4.31-2.35,8.1-4.18,11.21-5.57l1.54-.69c1.41-.61,2.67-1.13,3.72-1.53,2.7-1.07,4.2-1.55,4.2-1.55.09-.22.17-.44.25-.67,10.63-27,17-68.25,17.63-72.08,0-.21,0-.3,0-.3H219.65S196,400.41,206.63,437.93Z" style="fill:#37474f"></path><path d="M219.65,353.61l111.47.3-6-37.45s8.45-12.62,7-26.06S301.29,240,299,238c-9.32-8-19.34-6.82-25.57-3.44C236.58,254.56,219.65,353.61,219.65,353.61Z" style="fill:#37474f"></path><path d="M301.14,312a116.71,116.71,0,0,0-17.23,3c-2.81.74-5.56,1.61-8.31,2.54-1.37.47-2.74.89-4.13,1.3a18.67,18.67,0,0,1-4.44.87.11.11,0,0,0,0,.21,32.2,32.2,0,0,0,4.28-.11,31.51,31.51,0,0,0,4.07-.81c2.86-.73,5.67-1.59,8.52-2.35,5.74-1.53,11.47-3.05,17.31-4.16C301.49,312.39,301.42,311.93,301.14,312Z" style="fill:#263238"></path><path d="M315.56,317a128.74,128.74,0,0,0-14.43-.56c-2.41.05-4.8.24-7.2.49q-1.71.18-3.42.42c-1.26.17-2.49.51-3.74.66-.14,0-.13.22,0,.21,1.19-.11,2.4,0,3.59-.06L294,318c2.4-.08,4.8-.13,7.2-.23,4.81-.21,9.6-.36,14.41-.4C315.83,317.38,315.8,317,315.56,317Z" style="fill:#263238"></path><path d="M283.58,232c-7.35.75-4.51,14,2.72,24.83,6.06,9.07,19.38,22.3,21.58,21.42s1.28-26.89-5.06-33.88S287.76,231.53,283.58,232Z" style="fill:#d3766a"></path><path d="M282.09,237.93c0,2.26,6.79,18.68,16.69,20.62,3.23.62,7.44-16.84,7.44-16.84l.6-1.21,8.46-17.06-17.86-18.79-2.62-2.56s-2,4.82-4.45,10.85c-.11.28-.23.56-.34.86s-.29.65-.42,1c-.37.9-.75,1.81-1.11,2.73-.28.7-.55,1.38-.81,2.12s-.55,1.47-.83,2.21C284.2,229.19,282.11,237,282.09,237.93Z" style="fill:#d3766a"></path><path d="M290.35,212.94a38.22,38.22,0,0,0,16.47,27.56l8.46-17.06-17.86-18.79-2.62-2.56S292.79,206.91,290.35,212.94Z" style="fill:#263238"></path><path d="M346.56,196.61c-.33,33.41-20.38,37-27.58,36.91-6.54-.07-28.8-1.15-31.93-34.41s12.52-43.67,27.48-44.3S346.89,163.2,346.56,196.61Z" style="fill:#d3766a"></path><path d="M341.48,190.67a21.72,21.72,0,0,1-2.26-.51,3.65,3.65,0,0,1-2.19-.95,1.19,1.19,0,0,1,0-1.45,3,3,0,0,1,2.92-.65,4.4,4.4,0,0,1,2.7,1.56A1.27,1.27,0,0,1,341.48,190.67Z" style="fill:#263238"></path><path d="M318.27,189.59c.78-.09,1.49-.29,2.26-.45a3.76,3.76,0,0,0,2.22-.9,1.19,1.19,0,0,0,0-1.45,3,3,0,0,0-2.9-.73,4.44,4.44,0,0,0-2.74,1.5A1.28,1.28,0,0,0,318.27,189.59Z" style="fill:#263238"></path><path d="M323.12,196.07c0-.09-.18.11-.18.2.1,2.28-.17,4.9-2.22,5.68-.06,0-.05.14,0,.12C323.25,201.69,323.57,198.21,323.12,196.07Z" style="fill:#263238"></path><path d="M321.06,193.72c-3.66-.24-3.87,7.1-.47,7.32S324.13,193.92,321.06,193.72Z" style="fill:#263238"></path><path d="M319.6,194.07c-.65.39-1.3,1.11-2.07,1.17s-1.55-.73-2.12-1.48c-.05-.08-.12,0-.12.08-.06,1.4.44,2.86,1.94,3.11s2.39-1,2.78-2.39C320.08,194.3,319.87,193.91,319.6,194.07Z" style="fill:#263238"></path><path d="M336.67,195.33c0-.08.17.12.17.21-.15,2.27.05,4.9,2.09,5.73.06,0,.05.14,0,.12C336.4,201,336.16,197.46,336.67,195.33Z" style="fill:#263238"></path><path d="M338.78,193c3.67-.15,3.7,7.2.3,7.33S335.71,193.16,338.78,193Z" style="fill:#263238"></path><path d="M340.32,193.51c.58.39,1.16,1.09,1.85,1.13s1.39-.74,1.9-1.51c.06-.08.12,0,.12.08,0,1.41-.42,2.87-1.76,3.14s-2.14-.95-2.48-2.34C339.89,193.75,340.08,193.35,340.32,193.51Z" style="fill:#263238"></path><path d="M323.41,215.28c.5.57,1,1.34,1.81,1.47a6.07,6.07,0,0,0,2.48-.4.08.08,0,0,1,.09.13,3.06,3.06,0,0,1-3,1,2.43,2.43,0,0,1-1.64-2.14C323.16,215.23,323.33,215.19,323.41,215.28Z" style="fill:#263238"></path><path d="M333.05,207.2s.41,3.41.39,5c0,.15-.4.22-.94.24,0,0,0,0-.06,0a7.62,7.62,0,0,1-7.36-3c-.1-.16.1-.32.25-.22a11.4,11.4,0,0,0,6.92,2.1c.12-.44-.91-5.8-.65-5.82a14,14,0,0,1,3.62.88c-.66-7.12-2.46-14.07-3-21.16a.22.22,0,0,1,.42-.1c2.4,7.15,3.34,15.33,4.21,22.66C337,208.74,333.68,207.49,333.05,207.2Z" style="fill:#263238"></path><path d="M287.9,198.88c5.39,1.17,8-11.28,8-11.28s11.06,1.54,16.88-13.87a24.74,24.74,0,0,1-6.69,12.49s20,1.8,30.42-13.41c0,0-4.41,7.87-7.88,10.41,0,0,8.49-1.17,13.39-7.26,0,0,2.13,9.88,4.4,12.84,0,0,3.85-34.24-28.26-34.92,0,0-20-1.39-29.23,13.31S287.9,198.88,287.9,198.88Z" style="fill:#263238"></path><path d="M286.23,196.77c.47,4.62-6.67-17.57-6.14-20.76s8.85-18,23.17-22.86c12-4,25.27,1.76,27.58,2.8a19.85,19.85,0,0,1,6.78,5s-17.38-7.66-33.36-5.25C296.55,156.83,284.46,179.47,286.23,196.77Z" style="fill:#FFC727"></path><path d="M297.71,150.92s4.82-9,13.58-10.56c0,0,.19,8.77-2.73,11.84-1.46,1.53-8.33,2.56-9.21,1.46A16,16,0,0,1,297.71,150.92Z" style="fill:#FFC727"></path><path d="M297.71,150.93a16.57,16.57,0,0,0,1.63,2.72.38.38,0,0,0,.15.12.68.68,0,0,0,.21.12l.18.06a9.82,9.82,0,0,0,3.83,0,22,22,0,0,0-1.18-3.74,5.85,5.85,0,0,0-2.79-2.24A21.18,21.18,0,0,0,297.71,150.93Z" style="fill:#050400;opacity:0.1"></path><path d="M295.63,152.25s-12.41-1.14-18.16,1.89c0,0,3.62,6.2,9.87,7.41,2.8.54,10.56-5,10-6.38A12.33,12.33,0,0,0,295.63,152.25Z" style="fill:#FFC727"></path><path d="M292.81,152.09a7.14,7.14,0,0,0,.47,4,6.21,6.21,0,0,0,1.73,1.92c1.52-1.19,2.56-2.34,2.36-2.89a12.58,12.58,0,0,0-1.74-2.92S294.52,152.14,292.81,152.09Z" style="fill:#050400;opacity:0.1"></path><path d="M294.51,155.12a4,4,0,1,0,1.39-5.55A4,4,0,0,0,294.51,155.12Z" style="fill:#FFC727"></path><path d="M292.55,200s-6.26-11.08-11.22-8.95-1,17.71,4.37,20.3a5.66,5.66,0,0,0,7.83-2.29Z" style="fill:#d3766a"></path><path d="M282.59,195.44a.07.07,0,0,0,0,.14c3.72,1.95,5.41,5.74,6.48,9.61-1-1.55-2.5-2.49-4.56-1.3-.11.06,0,.23.09.21a3.48,3.48,0,0,1,3.69,1.58,16.42,16.42,0,0,1,1.52,3.26c.15.36.79.24.7-.18a.29.29,0,0,1,0-.09C291,203.74,287.85,196.45,282.59,195.44Z" style="fill:#263238"></path><path d="M255,252.13c-25.59,34.08-46.9,73.64-41.88,98.58,3.34,16.66,29.47,5.76,31.63,4.51,22.77-13.18,26.41-65.37,31.06-95.52C280.46,229.77,264.47,239.57,255,252.13Z" style="fill:#d3766a"></path><path d="M216.14,355.9c11.26,10.74,33.67,8.2,90,2.78,7.79-.75,15.65-55,7.29-54.66-10.53.47-51.3,4.58-54.24,5.26C234.33,315,209.14,349.22,216.14,355.9Z" style="fill:#d3766a"></path><path d="M306,307.94s18.33-10.31,29.63-12.75c15.14-3.26,29.55.16,35.5,1.95,12.43,3.75,39.88,21.4,36.18,30.2-3.36,8-30.51-11.5-30.51-11.5s31,15.27,25.16,24.11-36-15.54-36-15.54,31.45,16.41,24,24.58c-5.61,6.18-34.24-14.37-34.24-14.37s26.94,14.3,21.44,20.9c-6.07,7.29-33.69-10-33.69-10-16.79,14.43-30.69,14.43-40.58,13.25C300.49,358.46,306,307.94,306,307.94Z" style="fill:#d3766a"></path><path d="M366.42,309.87c3.71,1.66,7.46,3.32,11,5.3s7,4.1,10.36,6.41c8.19,5.66,12.44,10.48,12.14,10.21-7-6.37-19.53-13.68-23.07-15.66s-7-4.15-10.51-6.13C366.25,310,366.34,309.83,366.42,309.87Z" style="fill:#263238"></path><path d="M359,322.52c4.63,2.33,9.32,4.47,13.85,7s8.57,5.31,12.9,8.14c.33.21.11.32-.24.12-4.43-2.65-8.74-4.76-13.2-7.36s-8.83-5.37-13.37-7.79C358.88,322.59,359,322.49,359,322.52Z" style="fill:#263238"></path><path d="M350.71,332.24c7.27,3.2,13.93,7.73,20.37,12.33.32.23,0,.33-.33.12-6.69-4.23-11.91-7.59-20.15-12.2C350.47,332.42,350.56,332.17,350.71,332.24Z" style="fill:#263238"></path><path d="M268.28,307.81c-4.2,1.29-8.39,2.5-12.53,3.81-2.07.67-4.14,1.32-6.13,2.11a25.68,25.68,0,0,0-5.63,2.85,56.14,56.14,0,0,0-5.18,3.82c-1.69,1.34-3.31,2.78-4.92,4.22A99.17,99.17,0,0,0,224.8,334a52,52,0,0,1,8-10.46,61.64,61.64,0,0,1,10.09-8.6,26.93,26.93,0,0,1,6.08-3c2.1-.71,4.22-1.33,6.36-1.83A101.5,101.5,0,0,1,268.28,307.81Z" style="fill:#263238"></path><path d="M314.76,303.36a84.71,84.71,0,0,1,8.11-4.28,72.42,72.42,0,0,1,8.56-3.37c.74-.22,1.47-.45,2.23-.63s1.49-.38,2.26-.51a32.78,32.78,0,0,1,4.6-.48,65.27,65.27,0,0,1,9.17,0c-1.53.06-3,.19-4.56.35s-3,.29-4.55.46a40.94,40.94,0,0,0-4.48.64c-.73.15-1.47.32-2.19.53s-1.46.42-2.18.64c-2.89.89-5.73,2-8.55,3.11-1.41.57-2.82,1.16-4.22,1.77S316.16,302.76,314.76,303.36Z" style="fill:#263238"></path><path d="M333.18,352.86a60.05,60.05,0,0,0,5.23-3.55,46.79,46.79,0,0,0,4.8-4.08l.2-.19.25.15c2.87,1.65,5.77,3.3,8.74,4.78s6,2.93,9,4.16a48,48,0,0,0,4.68,1.64,26.44,26.44,0,0,0,4.8,1.08,9.67,9.67,0,0,0,4.78-.46,4.6,4.6,0,0,0,1.82-1.54,2.42,2.42,0,0,0,.25-2.34,2.45,2.45,0,0,1-.07,2.44,4.82,4.82,0,0,1-1.83,1.78,9.48,9.48,0,0,1-5,.76A35.09,35.09,0,0,1,361.1,355a84.52,84.52,0,0,1-9.14-4.16c-2.95-1.57-5.88-3.18-8.69-5l.45-.05a44.2,44.2,0,0,1-5,3.92A46.94,46.94,0,0,1,333.18,352.86Z" style="fill:#263238"></path></g><g id="freepik--character-3--inject-41"><path d="M459.8,437.93h82.26c1.58-17.28,3.1-33.87,4.39-48.2h0l.21-2.29h0q.6-6.66,1.12-12.54c.08-.78.16-1.56.22-2.33.06-.61.12-1.21.16-1.82,1.52-16.81,2.46-27.49,2.46-27.49h-78.7s0,.09,0,.23c0,.41-.18,1.33-.35,2.72h0c-.08.77-.2,1.67-.34,2.71,0,.21-.06.44-.08.66s0,.22-.05.34a3,3,0,0,1-.05.39v0c-.6,4.73-1.48,11.6-2.57,20.08,0,.33-.09.66-.13,1s-.08.62-.11.94c0,.16-.05.33-.07.5-.35,2.81-.74,5.78-1.15,8.88-.13,1.1-.27,2.19-.4,3.31-.11.79-.22,1.6-.32,2.4,0,.1,0,.21,0,.31s-.06.46-.1.68q-.39,3.07-.81,6.28c0,.33-.08.68-.13,1-.12,1-.25,1.94-.37,2.94-1.18,9.22-2.45,19.16-3.77,29.49-.08.57-.15,1.16-.23,1.75Q460.31,433.88,459.8,437.93Z" style="fill:#263238"></path><path d="M530.14,437.93h1.21c2-19.42,3.86-38.87,5.57-58.34,0-.5.09-1,.14-1.51v0c0-.35.06-.69.08-1,.13-1.48.27-3,.4-4.45h0c.05-.57.09-1.13.13-1.7q.74-8.61,1.47-17.26c0-.19-.29-.19-.32,0-.57,5.59-1.15,11.16-1.72,16.75v.06c0,.15,0,.3,0,.45-.18,1.89-.38,3.75-.56,5.65,0,.27-.06.53-.07.8l-.27,2.62C534.21,399.27,532.26,418.6,530.14,437.93Z" style="fill:#37474f"></path><path d="M483.28,343.24l.09.49v.14l.31,2,0,.34h0l.56,3.65,3.2,21.09.68,4.45.32,2.12,1.51,10,.09.6,1,6.27,1.5,10,1.34,8.75h0l.36,2.36v0l.95,6.27v0l.07.43.25,1.7h0l1.87,12.25.27,1.81H553c2.65-15,5.21-29.46,7.5-42.38.09-.51.17-1,.26-1.46h0c1.54-8.7,2.94-16.67,4.18-23.6.23-1.34.47-2.67.7-3.94.12-.73.25-1.46.37-2.15,2.32-13.12,3.75-21.15,3.75-21.15Z" style="fill:#37474f"></path><path d="M471.85,343.17s0,.09,0,.3c.06.44.2,1.38.42,2.72h0c.08.51.17,1.1.28,1.76.05.27.1.57.14.86a1.09,1.09,0,0,1,.05.26.3.3,0,0,0,0,.12c0,.33.1.66.16,1,.86,5,2.17,12.23,3.9,20.55.29,1.38.59,2.8.9,4.23.36,1.67.73,3.38,1.13,5.1q.9,3.92,1.9,8c.12.51.25,1,.39,1.55.57,2.28,1.16,4.58,1.8,6.87a229.4,229.4,0,0,0,7.55,23.35h0c.08.24.17.46.26.7,0,0,1.1.34,3.09,1.09l1.36.53c.88.34,1.89.76,3,1.23l.93.39c.53.26,1.06.5,1.63.75h0c3.3,1.48,7.31,3.41,11.88,5.89l1.29.71s0,.18,0,.52h0c.07.95.24,3.11.48,6.27h77.78c-2.59-26.06-5-50.43-6.82-67.92-.5-5.05-1-9.52-1.34-13.31a.83.83,0,0,1,0-.22,2.57,2.57,0,0,0,0-.4c0-.46-.08-.91-.13-1.35-.74-7.34-1.18-11.56-1.18-11.56Z" style="fill:#263238"></path><path d="M574,355.31c.14,1.62.26,3.25.38,4.87,0,.6.09,1.21.14,1.83.21,2.75.41,5.51.63,8.28q2.55,33.82,5.19,67.64h1.06q-2.85-33.82-5.54-67.66-.35-4.31-.7-8.61c0-.6-.1-1.22-.13-1.83-.14-1.5-.24-3-.36-4.51C574.6,354.9,574,354.9,574,355.31Z" style="fill:#37474f"></path><path d="M486.86,418.48A172.67,172.67,0,0,1,514,431.13a.31.31,0,0,1-.25.56c-9.15-3.93-18.48-7.69-27.4-12.12A.6.6,0,0,1,486.86,418.48Z" style="fill:#37474f"></path><path d="M484,355.7c0-.32.58-.39.58-.05a305,305,0,0,0,1.53,30.57c.43,4.72,4.22,30.76,12.39,28.86,1.37-.31,2.07-1.66,2.28-3.72.26-2.48-.67-5.53-1.08-8-.91-5.45-1.64-10.92-2.1-16.43a149.05,149.05,0,0,1,.33-30.82.26.26,0,0,1,.52,0c0,14.24.36,28.44,2.49,42.54,1,6.77,4.44,17-2.65,18s-11.88-16-12.76-20.7C483,383,482.92,368.89,484,355.7Z" style="fill:#37474f"></path><path d="M498.24,415.78a44.55,44.55,0,0,1,1.83,5.4,12.15,12.15,0,0,1,.77,4.44c0,.29-.41.32-.57.12a15.65,15.65,0,0,1-1.9-4.32c-.62-1.67-1.28-3.32-1.85-5A.92.92,0,0,1,498.24,415.78Z" style="fill:#37474f"></path><path d="M535.22,364.22a14.11,14.11,0,0,1,.35-3.38.17.17,0,0,1,.33,0,13.67,13.67,0,0,1,.38,2.92c.11,1.13.26,2.24.38,3.37a50.68,50.68,0,0,0,1.2,6.8,24.14,24.14,0,0,0,6.24,11.21,32.39,32.39,0,0,0,10.55,6.95c4.39,1.86,9,2.56,13.54,3.89a.17.17,0,0,1-.05.33,39.07,39.07,0,0,1-14.66-2.88,31.32,31.32,0,0,1-11-7,24.47,24.47,0,0,1-6.42-11.53,34.81,34.81,0,0,1-.88-6.83A30.44,30.44,0,0,1,535.22,364.22Z" style="fill:#37474f"></path><path d="M508.94,232.26c-3.7,19-26.84,85.29-47.86,101.91-14.17,11.19-53.35,8.42-67,9.13-6.67.35-7.34-52-.41-53.74,7.54-1.83,41.31-1.12,45.89-3.85s31.56-36.41,49.29-57.5C499.44,215.58,511,221.56,508.94,232.26Z" style="fill:#f7a9a0"></path><path d="M401.56,289.42c-20.12-2.92-42.12-3.23-60.92,6.62a10.48,10.48,0,0,0-4.84,4.89c-8.51,4.27-9.05,9.57-9.05,9.57-6.7,6.39-6.51,11.89-6.51,11.89s-9.32,3.88-7.23,10.39c2.33,7.32,15.21-.06,25.53-.27,23.64-.46,57.36,5.49,64.19,6Z" style="fill:#f7a9a0"></path><path d="M363,314.62c-7,.28-13.79.36-20.67,1.58-7.55,1.33-14.59,3.88-21.82,6.3a.18.18,0,0,1-.14-.34c12.39-6.45,28.74-9.21,42.62-7.86C363.3,314.34,363.32,314.61,363,314.62Z" style="fill:#263238"></path><path d="M364.76,300.31c-6.75.65-18.6,1.85-37.92,10.39-.06,0-.13-.07-.06-.11a72.22,72.22,0,0,1,38-10.6C365.16,300,365.21,300.27,364.76,300.31Z" style="fill:#263238"></path><path d="M365.58,292.61c-11.43,1.53-18.45,3.94-29.72,8.35-.07,0-.13-.08-.06-.11,12.28-6.36,17.46-7.28,29.79-8.64C366,292.16,366,292.55,365.58,292.61Z" style="fill:#263238"></path><path d="M367.06,333.76c3.1,1.16,2.51,2.79-3.1,4.58s-29.32,4.11-27.81,12.32,34.92,4.44,44,.75,22.55-12.86,22.55-12.86C396.08,338,380.09,335.05,367.06,333.76Z" style="fill:#f7a9a0"></path><path d="M397.07,283.37l2.26,61.26s20.68,6.94,34.95,6.81c19.14-.18,30.1-9.87,35.74-17.58,12.1-16.52,29.1-62.62,38.78-96.06,9-31.08-14.6-17.5-21.55-9.33-3.88,4.57-47.28,53.35-49.34,54.36-1.08.53-3.52.65-17,.65C408.59,283.47,397.07,283.37,397.07,283.37Z" style="fill:#455a64"></path><path d="M412.62,288.72c.16,1.75.47,3.47.6,5.22s.25,3.38.34,5.08q.27,5.18.49,10.34c.31,6.91.59,13.82.66,20.73,0,2,0,3.93.06,5.89a37.76,37.76,0,0,1-.12,5.63.11.11,0,0,1-.22,0,36.37,36.37,0,0,1-.55-5.22c-.11-1.69-.24-3.39-.36-5.08q-.36-5.16-.6-10.33c-.33-6.8-.62-13.6-.81-20.4-.06-2-.09-3.92-.11-5.89s.15-3.94.17-5.92C412.18,288.5,412.59,288.43,412.62,288.72Z" style="fill:#263238"></path><path d="M508.8,237.8c-9.67,33.43-26.68,79.54-38.78,96.06-5.38,7.35-15.59,16.5-33.12,17.49l63-131.86C507.54,216.46,514.32,218.69,508.8,237.8Z" style="fill:#37474f"></path><path d="M466.2,370c2,2.12,124.34.54,125-.26,1.75-2.17-33.48-127.46-62.38-149.92-6.21-4.83-30.91-5-36.33,6.17C469.27,273.49,464.47,368.09,466.2,370Z" style="fill:#455a64"></path><path d="M519.81,240.2c9.56,15.62,41.47,66.49,43.59,70.46,0,0,51.44,20.69,53.49-8.7,1.39-19.81-51.74-65.79-81.18-79.24C521.73,216.33,506.27,218.08,519.81,240.2Z" style="fill:#455a64"></path><path d="M557.28,300.55c-2.31-3.31-4.52-6.68-6.71-10.06s-4.32-6.81-6.48-10.21-4.23-6.87-6.29-10.33l-3.07-5.21c-1-1.75-2-3.49-3-5.26,1.16,1.65,2.26,3.34,3.4,5l3.31,5.06c2.19,3.38,4.32,6.81,6.48,10.21s4.22,6.87,6.28,10.33S555.32,297,557.28,300.55Z" style="fill:#263238"></path><path d="M532.2,263.75c.95.89,1.82,1.84,2.69,2.79s1.72,1.89,2.58,2.88a11.21,11.21,0,0,1-1.56-1.18c-.49-.43-.94-.89-1.39-1.37A19.14,19.14,0,0,1,532.2,263.75Z" style="fill:#263238"></path><path d="M521.2,323c-4.89,5.3,6.75,53.74,16.64,49.9,46.52-18,73.18-52.07,77.36-61,5.47-11.72-3.7-25-11.79-27.5C591.67,280.77,526,317.71,521.2,323Z" style="fill:#f7a9a0"></path><path d="M524.25,322.83s-21,.61-32,4.34c-14.66,5-25.25,15.36-29.42,20-8.72,9.61-23.15,38.89-15.44,44.52,7,5.09,20.21-25.58,20.21-25.58s-18.66,29.05-9.13,33.64,22.87-31.9,22.87-31.9-18.5,30.28-7.92,33.45c8,2.41,21.93-29.95,21.93-29.95s-15.72,26.13-7.61,28.95c9,3.12,23.71-25.94,23.71-25.94,21.83,3.7,33.74-3.46,41.6-9.56C555,363.29,524.25,322.83,524.25,322.83Z" style="fill:#f7a9a0"></path><path d="M473.45,355.62c-2.31,3.33-4.68,6.69-6.69,10.22s-3.9,7.13-5.58,10.82a69.94,69.94,0,0,0-5.14,15c2.69-9.05,9.69-21.79,11.71-25.31s3.83-7.14,5.84-10.67C473.64,355.6,473.51,355.54,473.45,355.62Z" style="fill:#263238"></path><path d="M486.32,362.65c-2.77,4.38-5.69,8.63-8.27,13.14s-4.61,9-6.86,13.62c-.17.35.08.33.27,0,2.43-4.56,5-8.58,7.52-13.11s4.81-9.15,7.45-13.57C486.47,362.64,486.36,362.58,486.32,362.65Z" style="fill:#263238"></path><path d="M498.45,366.7c-4.58,6.48-8,13.8-11.1,21.06-.16.36.16.29.34-.07,3.56-7.07,6.3-12.64,11-20.83C498.75,366.73,498.54,366.56,498.45,366.7Z" style="fill:#263238"></path><path d="M530.66,315l16.19,59.82s17.24,3.24,32.51-8.2c17.89-13.4,34.44-42.75,37.7-58.31,2.14-10.21-5.83-25.09-17.29-24.42C579.09,285.14,530.66,315,530.66,315Z" style="fill:#455a64"></path><path d="M545.66,311.62c.61,1.78,1.36,3.51,1.93,5.32s1.12,3.49,1.64,5.25c1.06,3.57,2.09,7.16,3.12,10.74,2.07,7.17,4.1,14.37,5.93,21.61q.76,3.09,1.55,6.17a42.14,42.14,0,0,1,1.31,6,.11.11,0,0,1-.22,0,41.25,41.25,0,0,1-1.89-5.34c-.54-1.75-1.1-3.5-1.65-5.25q-1.68-5.33-3.23-10.7c-2.06-7.06-4.08-14.13-6-21.22q-.82-3.07-1.6-6.16c-.52-2.07-.86-4.18-1.33-6.26C545.16,311.49,545.56,311.31,545.66,311.62Z" style="fill:#263238"></path><path d="M578.53,290.14c-26.34,9-47.84,24.68-47.89,24.71a.28.28,0,0,0,.15.53c4.4-2.06,24.28-14.68,47.87-24.56C578.82,290.76,578.69,290.08,578.53,290.14Z" style="fill:#263238"></path><path d="M502.28,246.58c7.85,0,18-14.33,20.87-24.72.19-.72-2.33-7.15-5-15.12-1.62-4.84-3.31-10.26-4.49-15.32-.23-1-29.95,15.12-29.95,15.12s5.6,9.88,7.6,18.72a11.61,11.61,0,0,1,.27,2.13c0,.1,0,.22,0,.35C491.87,231.84,494.69,246.55,502.28,246.58Z" style="fill:#f7a9a0"></path><path d="M511.72,192c.53,8.91,0,30.83-16.83,35.16a18.56,18.56,0,0,1-3.29.58,1.63,1.63,0,0,1,0-.35,13.59,13.59,0,0,0-.26-2.13c-2-8.85-7.61-18.73-7.61-18.73S505.12,194.87,511.72,192Z" style="fill:#263238"></path><path d="M513,154.66c5,11.1,3.12,45.25-4.15,53.73-10.55,12.3-29.92,15.81-40.9,2.65-10.64-12.75-7.42-57.21.9-65.14C481.1,134.23,505.62,138.25,513,154.66Z" style="fill:#f7a9a0"></path><path d="M461.3,185.92c.48,10.48,2.51,20.18,6.64,25.12,11,13.16,30.35,9.65,40.9-2.65,3-3.52,5.11-11.46,6.16-20.36l-7-11.5s-4.62,10.91-7.2,13.72c-3.3,3.59-11.12,6.86-23.11,1.26l-3.79.52s-6.9,7.05-11.32-.88A16.91,16.91,0,0,1,461.3,185.92Z" style="fill:#263238;opacity:0.30000000000000004"></path><path d="M482.9,180.56c0-.09.17.12.16.21-.18,2.3,0,5,2,5.83.07,0,.05.14,0,.13C482.54,186.24,482.35,182.7,482.9,180.56Z" style="fill:#263238"></path><path d="M485.07,178.26c3.72-.1,3.64,7.34.2,7.43S482,178.34,485.07,178.26Z" style="fill:#263238"></path><path d="M469.81,179.92c0-.09-.18.11-.18.2.05,2.3-.28,4.95-2.37,5.69-.07,0-.06.14,0,.13C469.82,185.61,470.23,182.09,469.81,179.92Z" style="fill:#263238"></path><path d="M467.78,177.49c-3.7-.32-4.07,7.11-.64,7.4S470.88,177.76,467.78,177.49Z" style="fill:#263238"></path><path d="M488,174.89c-1-.27-1.89-.68-2.87-1a5,5,0,0,1-2.72-1.63,1.58,1.58,0,0,1,.27-1.9c1.13-1,2.6-.8,3.94-.36a5.71,5.71,0,0,1,3.27,2.51A1.68,1.68,0,0,1,488,174.89Z" style="fill:#263238"></path><path d="M465,173.72a30.48,30.48,0,0,0,3-.74,4.88,4.88,0,0,0,2.88-1.33,1.58,1.58,0,0,0-.07-1.91c-1-1.09-2.5-1.08-3.88-.78a5.8,5.8,0,0,0-3.52,2.15A1.68,1.68,0,0,0,465,173.72Z" style="fill:#263238"></path><path d="M485.67,201c-.56.54-1.11,1.27-1.95,1.34a6.29,6.29,0,0,1-2.47-.61.08.08,0,0,0-.1.12,3.11,3.11,0,0,0,2.91,1.28,2.45,2.45,0,0,0,1.83-2C485.93,201,485.75,201,485.67,201Z" style="fill:#263238"></path><path d="M483.32,194.1a7.83,7.83,0,0,1-5.27,3.44,9.85,9.85,0,0,1-2.82.09,2.35,2.35,0,0,1-.54-.06,4.8,4.8,0,0,1-.5-.09.56.56,0,0,1-.46-.52h0a.93.93,0,0,1,0-.24v-.22c0-1.77.17-4.47.17-4.47-.65.32-4,1.77-3.9.84.54-7.66,1.14-16.18,3.29-23.7a.21.21,0,0,1,.42.07c-.22,7.38-1.75,14.68-2.1,22.1a14.07,14.07,0,0,1,3.72-1.09c.25.08-.48,5.21-.41,6a.27.27,0,0,0,0,.09c3,.41,5.23-.47,8.14-2.44C483.28,193.76,483.47,193.92,483.32,194.1Z" style="fill:#263238"></path><path d="M514.15,185.22c-6.11-1.49-10-21.64-10-21.64s.39,8.6-1.23,8.45-8.68-11.56-9.75-19.9c0,0-7.46,5.48-15,8.06s-16.06,2.4-16.11,1.11c-.16-3.88,3-14.14,8.11-17.93,5.89-4.36,14.39-8.7,27.09-4.4s16.28,12.21,18.37,18.37S516.4,185.77,514.15,185.22Z" style="fill:#263238"></path><path d="M507.68,184.12s6.42-11.62,11.61-9.44,1.18,18.46-4.35,21.22a5.89,5.89,0,0,1-8.19-2.32Z" style="fill:#f7a9a0"></path><path d="M518,179.32a.08.08,0,0,1,.05.15c-3.86,2.06-5.59,6-6.67,10.08,1-1.62,2.59-2.61,4.75-1.4.11.07,0,.24-.09.23a3.61,3.61,0,0,0-3.83,1.68,17.53,17.53,0,0,0-1.56,3.41c-.15.38-.82.26-.73-.17,0,0,0-.07,0-.1C509.31,188.06,512.55,180.42,518,179.32Z" style="fill:#263238"></path><path d="M482,138.27a49.89,49.89,0,0,1,13.77-4.15c5.34-.69,16.39-1.72,24.83,5.6,7,6.06,6.57,17.56,6.68,19.88s-.88,16.36-5.95,19.76-5.63-20.44-13.67-28.32S482,138.27,482,138.27Z" style="fill:#FFC727"></path><path d="M482,138.28s17.62,4.88,25.66,12.77,8.61,31.71,13.69,28.31c2.23-1.5,3.31-3.72,4.22-7.45-1.08-7-3.93-17.76-9.76-25.23-5.46-7-14.83-10.51-24.85-11.61A56.91,56.91,0,0,0,482,138.28Z" style="fill:#050400;opacity:0.1"></path><path d="M519.21,193.55c-.47-6.31-6.94-23.2-13.71-32.87s-26.58-15.28-29.35-15.11c-6.72.41-9,2.45-10.06,1.85s5.84-5.67,7.73-6.81,7-3.82,9.89-3.76,20.94,1.8,27.52,9.46,15.9,29.17,14.21,34.69c-.4,1.33-2.16,2.18-2.71,4.06-.73,2.47-1.24,5.32-2,7C520.16,193.49,519.25,194.1,519.21,193.55Z" style="fill:#FFC727"></path><path d="M503.94,156.33a31.78,31.78,0,0,0,4.36-3.21,23.48,23.48,0,0,0,3.72-4c.08-.11.26,0,.19.1a18.11,18.11,0,0,1-3.39,4.49,15.09,15.09,0,0,1-4.73,2.94C503.9,156.73,503.77,156.44,503.94,156.33Z" style="fill:#263238"></path><path d="M519.25,187.24c.18-.45.47-.86.69-1.3a7.33,7.33,0,0,0,.58-1.56,14.57,14.57,0,0,1,.71-3.07,11.37,11.37,0,0,1,1.48-2.1,4.18,4.18,0,0,0,1.23-2.57.11.11,0,0,1,.21,0c0,1.92-1.27,3.29-2.1,4.89a21.49,21.49,0,0,0-.86,3.29,4.86,4.86,0,0,1-1.66,2.64C519.41,187.53,519.19,187.4,519.25,187.24Z" style="fill:#263238"></path><path d="M517.05,180.42a26.25,26.25,0,0,0,1.77-2.15,19.69,19.69,0,0,0,1.35-2.36c.4-.8.73-1.64,1.11-2.45s1-1.87,1.41-2.84c.06-.13.24,0,.19.1-.42,1-.66,2.1-1,3.13a23.17,23.17,0,0,1-1.2,2.58,14.27,14.27,0,0,1-1.48,2.27,6.74,6.74,0,0,1-2,1.81A.06.06,0,0,1,517.05,180.42Z" style="fill:#263238"></path><path d="M514.74,174.26a18.42,18.42,0,0,0,3.43-3.89c.91-1.43,1.74-2.92,2.55-4.4.06-.1.24,0,.2.08a22.26,22.26,0,0,1-2.16,4.8,11.48,11.48,0,0,1-1.61,2,12.29,12.29,0,0,1-2.27,1.58C514.77,174.48,514.64,174.34,514.74,174.26Z" style="fill:#263238"></path><path d="M512.22,168.35a6.11,6.11,0,0,0,1.67-1.69c.54-.71,1.07-1.44,1.58-2.17s1-1.41,1.47-2.12a6.19,6.19,0,0,0,1.13-2.32c0-.11.21-.1.2,0a6.13,6.13,0,0,1-.72,2.47,15.6,15.6,0,0,1-1.42,2.48,20.68,20.68,0,0,1-1.76,2.2,4.16,4.16,0,0,1-2,1.4C512.19,168.65,512.07,168.44,512.22,168.35Z" style="fill:#263238"></path><path d="M510.4,160.86c.58-.57,1.16-1.15,1.7-1.77s1-1.27,1.53-1.92,1-1.35,1.53-2.06a.1.1,0,1,1,.18.1,17.08,17.08,0,0,1-1.16,2.3,17.62,17.62,0,0,1-1.51,2,21.37,21.37,0,0,1-1.74,1.82,6.51,6.51,0,0,1-2.05,1.44.15.15,0,0,1-.17-.21A12.62,12.62,0,0,1,510.4,160.86Z" style="fill:#263238"></path><path d="M499.09,152.76A29.39,29.39,0,0,1,501,150.5a28.8,28.8,0,0,1,2.23-2.05,27.6,27.6,0,0,1,4.9-3.32c.09,0,.22.08.13.16-3,2.57-6.07,5-9,7.61A.1.1,0,0,1,499.09,152.76Z" style="fill:#263238"></path><path d="M495.25,147.36a13.33,13.33,0,0,1,2.14-2,28,28,0,0,1,5.4-3,.11.11,0,0,1,.11.18c-1.63,1.09-3.28,2.16-4.85,3.34a26.9,26.9,0,0,0-2.26,1.86c-.71.67-1.25,1.47-1.92,2.17a.09.09,0,0,1-.14-.08A7.45,7.45,0,0,1,495.25,147.36Z" style="fill:#263238"></path><path d="M490,144.9a13.51,13.51,0,0,1,2-2,16,16,0,0,1,4.61-2.72c.11-.05.18.12.08.19a31.24,31.24,0,0,0-4.34,3.16c-.68.59-1.33,1.22-2,1.84s-1.2,1.38-1.91,1.93c-.06,0-.13,0-.1-.09A14.82,14.82,0,0,1,490,144.9Z" style="fill:#263238"></path><path d="M486.18,141.77c.66-.55,1.35-1.05,2-1.55a7.93,7.93,0,0,1,2.19-1.24c.12,0,.18.12.09.19-1.29,1-2.56,2.09-3.83,3.15a21.83,21.83,0,0,0-2.94,3.49c-.05.05-.14,0-.12-.06A8,8,0,0,1,486.18,141.77Z" style="fill:#263238"></path><path d="M481.44,140.76a13.15,13.15,0,0,1,4.2-2.64c.11,0,.2.14.09.19a15.87,15.87,0,0,0-3.82,2.9,22.25,22.25,0,0,0-3,3.75c0,.07-.16,0-.13-.05A10.73,10.73,0,0,1,481.44,140.76Z" style="fill:#263238"></path><path d="M475.24,143.61a7,7,0,0,1,.54-1,10.1,10.1,0,0,1,1.4-1.73,22.68,22.68,0,0,1,3.57-2.76.1.1,0,1,1,.11.17,18.52,18.52,0,0,0-3.34,2.85,13.6,13.6,0,0,0-1.35,1.68c-.2.29-.38.59-.56.9a4.93,4.93,0,0,1-.52.89.1.1,0,0,1-.18-.07A2.66,2.66,0,0,1,475.24,143.61Z" style="fill:#263238"></path><path d="M471.44,144a15.84,15.84,0,0,1,1.15-1.42,14.26,14.26,0,0,1,1.31-1.27c.48-.4,1-.79,1.43-1.21a.1.1,0,1,1,.13.16,10.44,10.44,0,0,0-1.33,1.33L473,142.87c-.39.45-.79.89-1.18,1.33a15.47,15.47,0,0,1-1.18,1.37.08.08,0,0,1-.13-.09A7.59,7.59,0,0,1,471.44,144Z" style="fill:#263238"></path></g><g id="freepik--character-4--inject-41"><path d="M673.76,437.93H565.23c-2.46-6.58-6.31-17.61-9.94-31.11-.18-.69-.37-1.4-.56-2.11a292.78,292.78,0,0,1-7.84-40.92c0-.08,109,0,109,0v0a2.61,2.61,0,0,0,.13.26C657.83,367.58,676.07,404.35,673.76,437.93Z" style="fill:#37474f"></path><path d="M656.06,363.79a2.49,2.49,0,0,1,0,.26c-.09,3.51-1.51,40.75-16.57,73.88H523.77c2.84-15.68,6.07-31.1,9.78-45.55,0,0,0,0,0,0,.64-2.51,1.31-5,2-7.45,2-7.37,4.15-14.44,6.43-21.12Z" style="fill:#37474f"></path><path d="M562.41,373.25c-2.74,11.12-5.07,22.31-7.12,33.57-1.86,10.33-3.48,20.72-4.95,31.11h-1.43c1.69-11.12,3.59-22.2,5.82-33.22,2.14-10.58,4.6-21.1,7.49-31.51C562.25,373.08,562.43,373.13,562.41,373.25Z" style="fill:#263238"></path><path d="M535.28,385a.18.18,0,0,1,.35.05c-.44,6.5-1.53,13.59,1.35,19.71,2.55,5.4,7.39,8.44,11.85,12.09.14.12,0,.34-.18.29-5.93-1.8-11.84-5.09-14.17-11.15C531.86,399.2,533.27,391.78,535.28,385Z" style="fill:#263238"></path><path d="M557.6,156.29c-2.26.56-12.4.57-18,10.44-5.31,9.34-4.47,35.78-5.16,41.64s-8.06,7.59-9,14.42c-.85,5.87,3.54,7.48,4.45,11.61.71,3.2-2,8.44,1.53,12.89,3.2,4.05,7.82,2.57,10.84,3.61s5.56,7.43,11.06,8.6,9.61-4.2,12.41-4.5,7.14,7.92,16.21,6.1,10.81-9.88,14.41-11.84,13.4-.45,17.18-5.67,3.79-11.62,5.47-14.17,5.8-2.66,7.6-8.31-3.59-8.48-4.84-13.06c-.87-3.19,1.67-6.51-.94-11.23-3.58-6.5-11.76-4.07-15.75-10.69-3.14-5.2-11.09-28.48-26.2-32.67C568.37,150.56,557.6,156.29,557.6,156.29Z" style="fill:#263238"></path><path d="M534.55,207a8.22,8.22,0,0,1-2.09,3.36l-2.68,2.92a25.12,25.12,0,0,0-4.62,6.19,8,8,0,0,0-.07,7,12,12,0,0,0,2.29,3,14.13,14.13,0,0,1,2.66,3.21,6.79,6.79,0,0,1,.13,4.35c-.27,1.32-.61,2.58-.82,3.85a9.42,9.42,0,0,0,1.07,7.14,5.39,5.39,0,0,0,2.8,2.17,9.89,9.89,0,0,0,3.74.37c1.3-.06,2.6-.25,3.92-.39a6.72,6.72,0,0,1,3.92.42,7.13,7.13,0,0,0-3.86,0c-1.29.24-2.58.55-3.91.73a10.74,10.74,0,0,1-4.1-.19,6.45,6.45,0,0,1-3.45-2.42c-1.83-2.27-1.92-5.42-1.49-8,.21-1.34.52-2.64.77-3.91a5.44,5.44,0,0,0-.08-3.41c-1-2-3.6-3.59-4.82-6.2a8.9,8.9,0,0,1,.27-8.19,25.47,25.47,0,0,1,5.13-6.19l2.91-2.68A8.82,8.82,0,0,0,534.55,207Z" style="fill:#263238"></path><path d="M593.72,165.37c3,3.72,5,8,7.5,12,1.23,2,2.39,4,3.75,5.93a16.16,16.16,0,0,0,2.2,2.55,2,2,0,0,0,.61.45,2.1,2.1,0,0,0,.67.34c.53.21,1.08.38,1.63.54a70.85,70.85,0,0,1,6.79,2.24,12.12,12.12,0,0,1,5.76,4.57,7.44,7.44,0,0,1,1.16,3.58,9.66,9.66,0,0,1-.66,3.62,15.31,15.31,0,0,0-1.43,6.83c-.57-2.35.11-4.8.72-7a9.06,9.06,0,0,0,.42-3.34,6.48,6.48,0,0,0-1.18-3,11.76,11.76,0,0,0-5.32-3.93,69.87,69.87,0,0,0-6.7-2.06c-.58-.19-1.15-.38-1.72-.61a5.1,5.1,0,0,1-1.7-1.09,17,17,0,0,1-2.37-2.84,59.81,59.81,0,0,1-3.64-6.15l-3.2-6.34A60.11,60.11,0,0,0,593.72,165.37Z" style="fill:#263238"></path><path d="M621,227.56c-.84,1.47-.77,3.24-1,4.89s-.32,3.38-.57,5.07a25,25,0,0,1-1.19,5,11.13,11.13,0,0,1-2.87,4.55c-3,2.42-6.79,2.62-10.14,2.41-1.71-.12-3.39-.32-5.06-.4a10.45,10.45,0,0,0-4.92.6,9.76,9.76,0,0,1,4.92-1.34c1.72-.07,3.41,0,5.09,0,3.28,0,6.76-.38,9.12-2.38a10,10,0,0,0,2.52-3.92,30.67,30.67,0,0,0,1.4-4.75c.37-1.63.66-3.29,1-5,.18-.83.36-1.66.59-2.49A5,5,0,0,1,621,227.56Z" style="fill:#263238"></path><path d="M591.09,238.31c0,2.27-7.25,18.48-17.19,20.17-3.24.55-7-17-7-17l-.58-1.23-8-17.24,18.3-18.32,2.68-2.48s1.88,4.86,4.17,10.94c.11.28.21.56.32.86s.28.66.39,1c.35.91.71,1.83,1.05,2.76.25.71.51,1.39.75,2.14s.51,1.48.77,2.22C589.19,229.54,591.09,237.36,591.09,238.31Z" style="fill:#dd6a57"></path><path d="M583.46,213.16a38.15,38.15,0,0,1-17.14,27.1l-8-17.24,18.3-18.32,2.68-2.48S581.17,207.08,583.46,213.16Z" style="fill:#263238"></path><path d="M526.15,196.08c-3.46,33.19,15.91,39.34,23.18,39.75,6.52.37,28.71,2.13,35.58-30.52s-7.46-44.76-22.24-47.08S529.61,162.89,526.15,196.08Z" style="fill:#dd6a57"></path><path d="M528.67,191.48c.78-.07,1.5-.26,2.27-.4a3.64,3.64,0,0,0,2.23-.85,1.17,1.17,0,0,0,.05-1.45,2.94,2.94,0,0,0-2.88-.78,4.28,4.28,0,0,0-2.76,1.43A1.27,1.27,0,0,0,528.67,191.48Z" style="fill:#263238"></path><path d="M549.55,193.15a19.26,19.26,0,0,1-2.24-.55,3.74,3.74,0,0,1-2.18-1,1.2,1.2,0,0,1,.06-1.45,2.93,2.93,0,0,1,2.92-.58,4.31,4.31,0,0,1,2.66,1.62A1.26,1.26,0,0,1,549.55,193.15Z" style="fill:#263238"></path><path d="M544.35,201.19c0-.08.17.12.17.21-.21,2.27-.06,4.9,2,5.77.06,0,0,.14,0,.12C544,206.8,543.8,203.31,544.35,201.19Z" style="fill:#263238"></path><path d="M546.51,198.94c3.67-.07,3.53,7.27.14,7.33S543.44,199,546.51,198.94Z" style="fill:#263238"></path><path d="M548,199.36c.63.42,1.24,1.17,2,1.26s1.58-.65,2.17-1.38c.07-.08.13,0,.13.08,0,1.41-.57,2.84-2.08,3s-2.35-1.09-2.67-2.51C547.46,199.57,547.69,199.18,548,199.36Z" style="fill:#263238"></path><path d="M532.78,199.94c0-.09-.18.11-.18.2,0,2.27-.27,4.88-2.34,5.62-.06,0-.06.13,0,.12C532.79,205.56,533.19,202.09,532.78,199.94Z" style="fill:#263238"></path><path d="M530.78,197.55c-3.65-.32-4,7-.63,7.3S533.84,197.81,530.78,197.55Z" style="fill:#263238"></path><path d="M529.23,198c-.6.36-1.21,1-1.9,1.05s-1.36-.81-1.83-1.59c0-.09-.11,0-.12.07-.11,1.4.28,2.88,1.61,3.22s2.18-.86,2.58-2.23C529.65,198.21,529.47,197.81,529.23,198Z" style="fill:#263238"></path><path d="M544.74,218.84c-.48.6-.93,1.39-1.74,1.56a5.86,5.86,0,0,1-2.49-.28.08.08,0,0,0-.09.13,3,3,0,0,0,3,.88,2.44,2.44,0,0,0,1.54-2.21C545,218.79,544.81,218.76,544.74,218.84Z" style="fill:#263238"></path><path d="M534.82,210.24s-.57,3.38-.62,5c0,.15.38.23.92.28,0,0,0,0,.07,0a7.59,7.59,0,0,0,7.47-2.62c.11-.15-.08-.32-.23-.23a11.41,11.41,0,0,1-7,1.78c-.1-.44,1.17-5.75.92-5.77a13.71,13.71,0,0,0-3.66.71c1-7.07,3.1-13.93,4-21a.22.22,0,0,0-.41-.12c-2.72,7-4,15.14-5.24,22.42C530.84,211.59,534.17,210.49,534.82,210.24Z" style="fill:#263238"></path><path d="M583.41,211.17c-3.56-.84-13.39-14.1-10.65-31.53,0,0-1.38,15.82-.61,18.31s-4.26-6.49-2.25-20.57c0,0-8.74,4.25-15.68,5s-11-.07-11.37-.63,9.89-1.93,13-4.51c0,0-19,5.11-27.25,4.32-1-.09,1.29-19.59,15.26-25.6s32.31,6.31,36.75,12.4c0,0,6.12,2,11.32,12.46S587.25,212.07,583.41,211.17Z" style="fill:#263238"></path><path d="M571.18,200.58s7.1-10.54,11.87-8-.44,17.71-5.95,19.87a5.64,5.64,0,0,1-7.61-2.9Z" style="fill:#dd6a57"></path><path d="M581.45,196.87c.09,0,.1.12,0,.15-3.86,1.64-5.85,5.29-7.22,9,1.14-1.46,2.7-2.27,4.65-.93.1.07,0,.23-.1.21a3.45,3.45,0,0,0-3.8,1.28,16.25,16.25,0,0,0-1.78,3.12c-.17.35-.8.17-.68-.23l0-.09C572.4,204.47,576.13,197.46,581.45,196.87Z" style="fill:#263238"></path><path d="M539.32,333.43,542,363.79s86,1.95,113.95,0c0,0-13.35-92.54-44-120.34-16.45-14.9-27.57-18.1-38.82-6.69-2.84,2.89-36.8,47.77-40.38,64.91C529.53,316.78,539.32,333.43,539.32,333.43Z" style="fill:#FFC727"></path><path d="M577.25,245.93a2.3,2.3,0,1,1-2.3-2.3A2.3,2.3,0,0,1,577.25,245.93Zm24.13-2.3a2.3,2.3,0,1,0,2.29,2.3A2.3,2.3,0,0,0,601.38,243.63Zm-14.69-13.75a2.26,2.26,0,0,0,1.47.55,2.44,2.44,0,0,0,1.3-.38A18.56,18.56,0,0,0,586.69,229.88Zm-38.16,50.61a2.29,2.29,0,1,0,2.3,2.29A2.29,2.29,0,0,0,548.53,280.49Zm26.42,0a2.29,2.29,0,1,0,2.3,2.29A2.29,2.29,0,0,0,575,280.49Zm26.43,0a2.29,2.29,0,1,0,2.29,2.29A2.29,2.29,0,0,0,601.38,280.49Zm26.42,0a2.29,2.29,0,1,0,2.29,2.29A2.29,2.29,0,0,0,627.8,280.49Zm-66.06-17.8A2.3,2.3,0,1,0,564,265,2.3,2.3,0,0,0,561.74,262.69Zm26.42,0a2.3,2.3,0,1,0,2.3,2.3A2.3,2.3,0,0,0,588.16,262.69Zm26.43,0a2.3,2.3,0,1,0,2.29,2.3A2.3,2.3,0,0,0,614.59,262.69Zm-66.06,54.65a2.3,2.3,0,1,0,2.3,2.3A2.3,2.3,0,0,0,548.53,317.34Zm26.42,0a2.3,2.3,0,1,0,2.3,2.3A2.3,2.3,0,0,0,575,317.34Zm26.43,0a2.3,2.3,0,1,0,2.29,2.3A2.3,2.3,0,0,0,601.38,317.34Zm26.42,0a2.3,2.3,0,1,0,2.29,2.3A2.3,2.3,0,0,0,627.8,317.34Zm-92.48-17.79a2.29,2.29,0,1,0,2.3,2.29A2.3,2.3,0,0,0,535.32,299.55Zm26.42,0a2.29,2.29,0,1,0,2.3,2.29A2.3,2.3,0,0,0,561.74,299.55Zm26.42,0a2.29,2.29,0,1,0,2.3,2.29A2.3,2.3,0,0,0,588.16,299.55Zm26.43,0a2.29,2.29,0,1,0,2.29,2.29A2.3,2.3,0,0,0,614.59,299.55Zm26.59,0a.5.5,0,0,0-.17,0,2.3,2.3,0,1,0,0,4.59,2.17,2.17,0,0,0,1.39-.48v0C642,302.29,641.61,300.92,641.18,299.57ZM548.53,354.2a2.29,2.29,0,1,0,2.3,2.29A2.3,2.3,0,0,0,548.53,354.2Zm26.42,0a2.29,2.29,0,1,0,2.3,2.29A2.3,2.3,0,0,0,575,354.2Zm26.43,0a2.29,2.29,0,1,0,2.29,2.29A2.3,2.3,0,0,0,601.38,354.2Zm26.42,0a2.29,2.29,0,1,0,2.29,2.29A2.3,2.3,0,0,0,627.8,354.2Zm26.52,0h-.1a2.3,2.3,0,1,0,0,4.59,2.09,2.09,0,0,0,.87-.19C654.87,357.33,654.61,355.86,654.32,354.2Zm-92.58-17.8a2.3,2.3,0,1,0,2.3,2.3A2.3,2.3,0,0,0,561.74,336.4Zm26.42,0a2.3,2.3,0,1,0,2.3,2.3A2.3,2.3,0,0,0,588.16,336.4Zm26.43,0a2.3,2.3,0,1,0,2.29,2.3A2.3,2.3,0,0,0,614.59,336.4Zm26.42,0a2.3,2.3,0,1,0,2.29,2.3A2.3,2.3,0,0,0,641,336.4Z" style="fill:#fff"></path><path d="M585.16,260c-7,20.73-41.91,90.47-62.39,94.37-32.09,6.1-80.57-.63-101.19-2.2-11.21-.85-5.95-62,6.34-59.25,20.07,4.54,74,2.8,79.83,3.41s34.26-31.19,56-53C581.87,225.09,594,233.74,585.16,260Z" style="fill:#dd6a57"></path><path d="M433.75,298.78S417.29,283.43,406.14,278c-14.92-7.21-30.77-7.29-37.42-6.93-13.87.77-46.89,12.2-45.25,22.29,1.48,9.12,34.64-4.27,34.64-4.27s-36.06,8.08-32.26,18.74,41.41-7.08,41.41-7.08-36.87,9.14-31.2,19.51c4.27,7.84,39.24-6.31,39.24-6.31s-31.63,8.07-27.58,16.32c4.48,9.12,37.57-1.91,37.57-1.91,13.83,19.24,28.29,22.75,38.87,24C426.72,352.72,433.75,298.78,433.75,298.78Z" style="fill:#dd6a57"></path><path d="M371.79,284.5c-4.27.8-8.6,1.57-12.79,2.75s-8.33,2.49-12.38,4.05c-9.95,3.81-15.59,7.76-15.21,7.56,8.85-4.87,23.77-9.3,28-10.48s8.29-2.55,12.47-3.72C371.94,284.63,371.89,284.48,371.79,284.5Z" style="fill:#263238"></path><path d="M376.3,299.53c-5.41,1.26-10.83,2.3-16.18,3.79s-10.26,3.36-15.47,5.21c-.4.14-.19.31.22.18,5.28-1.63,10.29-2.74,15.59-4.32S371,301,376.34,299.66C376.42,299.64,376.38,299.52,376.3,299.53Z" style="fill:#263238"></path><path d="M382.48,311.74c-8.36,1.49-16.44,4.52-24.29,7.69-.39.15-.1.34.31.2,8-2.7,14.31-4.88,24-7.6C382.69,312,382.66,311.71,382.48,311.74Z" style="fill:#263238"></path><path d="M490,293.17l-.47,69.91s31.11-1.11,40.09-8.21,44.87-56.14,56-91.51-4.85-37.2-23.11-19.67-52.18,49.93-53.86,50.53S490,293.17,490,293.17Z" style="fill:#FFC727"></path><path d="M577.25,245.93a2.3,2.3,0,1,1-2.3-2.3A2.3,2.3,0,0,1,577.25,245.93Zm-53.83,34.95h0c-1.13,1.06-2.21,2.07-3.24,3.05a2.28,2.28,0,0,0,4.25-1.15A2.33,2.33,0,0,0,523.42,280.88Zm25.11-.39a2.29,2.29,0,1,0,2.3,2.29A2.29,2.29,0,0,0,548.53,280.49Zm26.42,0a2.29,2.29,0,1,0,2.3,2.29A2.29,2.29,0,0,0,575,280.49Zm-13.21-17.8A2.3,2.3,0,1,0,564,265,2.3,2.3,0,0,0,561.74,262.69Zm-66.05,54.65a2.3,2.3,0,1,0,2.3,2.3A2.3,2.3,0,0,0,495.69,317.34Zm26.42,0a2.3,2.3,0,1,0,2.3,2.3A2.3,2.3,0,0,0,522.11,317.34Zm26.42,0a2.3,2.3,0,1,0,2.3,2.3A2.3,2.3,0,0,0,548.53,317.34ZM508.9,299.55a2.29,2.29,0,1,0,2.3,2.29A2.3,2.3,0,0,0,508.9,299.55Zm26.42,0a2.29,2.29,0,1,0,2.3,2.29A2.3,2.3,0,0,0,535.32,299.55Zm26.42,0a2.29,2.29,0,1,0,2.3,2.29A2.3,2.3,0,0,0,561.74,299.55ZM495.69,354.2a2.29,2.29,0,1,0,2.3,2.29A2.3,2.3,0,0,0,495.69,354.2Zm26.43,0a2.31,2.31,0,0,0-2.31,2.29,2.27,2.27,0,0,0,1.49,2.13s0,0,0,0c.94-.26,1.83-.55,2.7-.84,0,0,0,0,0,0a2.5,2.5,0,0,0,.36-1.27A2.29,2.29,0,0,0,522.12,354.2ZM508.9,336.4a2.3,2.3,0,1,0,2.3,2.3A2.3,2.3,0,0,0,508.9,336.4Zm26.42,0a2.3,2.3,0,1,0,2.3,2.3A2.3,2.3,0,0,0,535.32,336.4Z" style="fill:#fff"></path><path d="M501.54,357c-.61-19.32-1.13-38.74.14-58.05,0-.17.29-.15.3,0,1.22,19.3.6,38.7-.07,58C501.91,357.18,501.55,357.22,501.54,357Z" style="fill:#263238"></path><path d="M536.51,347.34c6-9.25,22.49-29.47,45.48-72.69a.09.09,0,0,1,.17.07,133.4,133.4,0,0,1-5.83,12.88c1.09-1.44,2.16-2.89,3.33-4.27.09-.11.3,0,.23.13a26.86,26.86,0,0,1-2.85,4.16c-.58.7-1.19,1.37-1.79,2.05-23.94,44.78-35.55,54.32-38.42,57.86C536.7,347.69,536.4,347.52,536.51,347.34Z" style="fill:#263238"></path></g><g id="freepik--character-1--inject-41"><path d="M223.93,437.93H137.26c-.28-1.56-.56-3.09-.83-4.63s-.61-3.33-.92-5c-.24-1.32-.47-2.63-.71-3.93-.11-.65-.24-1.3-.35-1.94l-1.38-7.54c-.11-.62-.22-1.23-.32-1.84,0-.1,0-.21-.07-.31-.22-1.28-.45-2.55-.69-3.8-.05-.27-.09-.54-.15-.82-.48-2.66-1-5.22-1.4-7.7-.05-.4-.13-.8-.21-1.19-.31-1.71-.6-3.36-.91-5-.15-.82-.29-1.64-.44-2.45-.44-2.39-.85-4.67-1.24-6.82h0c0-.28-.09-.55-.16-.81,0,0,0,0,0,0-.06-.42-.14-.84-.22-1.26s-.17-.8-.24-1.2h0c-.28-1.55-.54-3-.78-4.39a.37.37,0,0,0,0-.09c-.11-.62-.21-1.21-.33-1.79s-.2-1.14-.3-1.67c-.06-.36-.13-.72-.19-1.06v0c-.11-.49-.18-1-.26-1.41s-.15-.83-.22-1.21-.1-.58-.16-.84c-.17-.92-.31-1.74-.45-2.46-.08-.48-.16-.91-.24-1.3,0-.23-.07-.46-.11-.66s0-.2,0-.29,0-.28-.07-.39a1.16,1.16,0,0,0,0-.18c0-.11,0-.2,0-.27a.87.87,0,0,0,0-.1l0-.14h81.89S213.85,396.14,223.93,437.93Z" style="fill:#455a64"></path><path d="M150.11,437.93H149q-6.1-32.24-12.07-64.48c0-.19.25-.28.29-.09C141.51,394.88,145.87,416.39,150.11,437.93Z" style="fill:#37474f"></path><path d="M189.9,363.4l-2.84,29v.06l-.6,6.08h0l-.68,7h0l-.14,1.38-.12,1.26-2.91,29.71H137.26c-.28-1.56-.56-3.09-.83-4.63s-.61-3.33-.92-5c-.24-1.32-.47-2.63-.71-3.93-.11-.65-.24-1.3-.35-1.94l-1.38-7.54c-.11-.62-.22-1.23-.32-1.84,0-.1,0-.21-.07-.31-.22-1.28-.45-2.55-.69-3.8-.05-.27-.09-.54-.15-.82-.47-2.65-.93-5.21-1.4-7.7-.05-.4-.13-.8-.21-1.19-.31-1.71-.6-3.36-.91-5-.15-.82-.29-1.64-.44-2.45-.44-2.39-.85-4.67-1.24-6.82h0c0-.28-.09-.55-.16-.81,0,0,0,0,0,0-.06-.42-.14-.84-.22-1.26s-.15-.82-.23-1.22h0l-.79-4.37a.37.37,0,0,0,0-.09c-.11-.62-.21-1.21-.33-1.79s-.2-1.14-.3-1.67c-.06-.36-.13-.72-.19-1.06v0c-.11-.49-.18-1-.26-1.41s-.15-.83-.22-1.21-.1-.58-.16-.84c-.17-.92-.31-1.74-.45-2.46-.08-.48-.16-.91-.24-1.3,0-.23-.07-.46-.11-.66s0-.2,0-.29,0-.28-.07-.39a1.16,1.16,0,0,0,0-.18c0-.11,0-.2,0-.27a.87.87,0,0,0,0-.1l0-.14Z" style="fill:#263238"></path><path d="M203.83,363.4c-7.85,17.43-11.64,36-15.42,40.78h0v0a21.79,21.79,0,0,1-2.77,2.74c-5.9,5.09-16.88,11.58-16.88,11.58,0,.2,0,.39,0,.58h0c-.16,6-.31,12.31-.43,18.8h-95c-1.64-15.94-.14-41.12,10.44-74.53Z" style="fill:#455a64"></path><path d="M191.11,403c-5.59,2.29-10.62,5.81-15.58,9.2-5.16,3.53-9.89,7.6-14.85,11.38-.19.15,0,.46.2.33,5.23-3.34,10.71-6.28,15.88-9.71s10.24-6.59,14.6-10.79C191.53,403.21,191.34,402.88,191.11,403Z" style="fill:#263238"></path><path d="M191.82,370.64c-.67,3.58-1.54,7.12-2.31,10.68-.72,3.34-1.26,6.74-2.14,10a17.11,17.11,0,0,1-4.68,8.42c-1.31,1.22-2.75,2.29-4.15,3.41-.75.6-1.56,1.18-2.35,1.79.11-.48.19-1,.27-1.44.24-1.36.47-2.72.7-4.08q.76-4.51,1.45-9c.91-5.94,1.74-11.94,3-17.82a.19.19,0,0,0-.37-.09c-1.48,5.82-3.11,11.59-4.4,17.46-.63,2.88-2.89,17.11-3,18.12s-.18,2.08-.22,3.12a12.7,12.7,0,0,0,0,3.2.27.27,0,0,0,.49,0h0a12.51,12.51,0,0,0,.91-3.09c.26-1,.49-2.05.67-3.08.07-.37.12-.75.17-1.13,1.4-.86,2.71-2,4-2.93s2.85-2,4.18-3.14a16,16,0,0,0,5.11-8,57.81,57.81,0,0,0,1.68-10.22c.45-4,.78-8.11,1.35-12.14C192.22,370.49,191.86,370.4,191.82,370.64Z" style="fill:#263238"></path><path d="M96.18,395.56c1.5-.78,7.31.61,17.89-1.2a12.06,12.06,0,0,0,5.71-2.32c2.75-2.25,4.84-5.86,6.51-9A46,46,0,0,0,130.84,372c.06-.23.4-.12.35.11-.39,2.19-.61,4.37-1.19,6.54a39.11,39.11,0,0,1-2.18,5.94c-1.6,3.59-3.47,7.45-6.69,9.87-3.38,2.55-8.09,3-12.18,3.31-2.37.16-11.65-.09-12.9-1.41A.53.53,0,0,1,96.18,395.56Z" style="fill:#263238"></path><path d="M212.46,379.62,73.74,374.29s26.16-112.88,76-156.59c6.15-5.4,20.23-4.59,29,.41C202.29,231.61,212.82,379.17,212.46,379.62Z" style="fill:#FFC727"></path><path d="M149.87,217.56l-.17.14-.54.49a2,2,0,0,1,.69,1.51,2,2,0,0,1-3.62,1.2c-.23.21-.45.43-.67.65a3,3,0,0,0,2.29,1.08,2.94,2.94,0,0,0,2-5.07Zm24.43-.81a2.94,2.94,0,1,0,3,2.95A2.94,2.94,0,0,0,174.3,216.75Zm0,4.95a2,2,0,1,1,0-4,2,2,0,1,1,0,4ZM121.37,257a2.94,2.94,0,1,0,2.94,2.94A2.94,2.94,0,0,0,121.37,257Zm0,5a2,2,0,0,1-2-2,2,2,0,0,1,4,0A2,2,0,0,1,121.37,261.92Zm26.48-5a2.94,2.94,0,1,0,2.93,2.94A2.95,2.95,0,0,0,147.85,257Zm0,5a2,2,0,0,1-2-2,2,2,0,0,1,4,0A2,2,0,0,1,147.85,261.92Zm26.45-5a2.94,2.94,0,1,0,3,2.94A2.94,2.94,0,0,0,174.3,257Zm0,5a2,2,0,0,1-2-2,2,2,0,1,1,2,2Zm-39.69-24.86a2.94,2.94,0,1,0,2.94,2.94A2.95,2.95,0,0,0,134.61,237.06Zm0,4.95a2,2,0,0,1-2-2,2,2,0,1,1,2,2Zm26.44-4.95a2.94,2.94,0,1,0,3,2.94A2.93,2.93,0,0,0,161.05,237.06Zm0,4.95a2,2,0,0,1-2-2,2,2,0,0,1,2-2,2,2,0,0,1,2,2A2,2,0,0,1,161.05,242Zm26.49-4.95a2.94,2.94,0,0,0,0,5.87,2.94,2.94,0,1,0,0-5.87Zm0,4.95a2,2,0,0,1-2-2,2,2,0,0,1,4,0A2,2,0,0,1,187.54,242ZM97.12,302a2.88,2.88,0,0,0,.7-1.72C97.58,300.85,97.35,301.43,97.12,302Zm24.25-4.86a2.94,2.94,0,1,0,2.94,3A2.95,2.95,0,0,0,121.37,297.14Zm0,5a2,2,0,1,1,2-2A2,2,0,0,1,121.37,302.11Zm26.48-5a2.94,2.94,0,1,0,2.93,3A3,3,0,0,0,147.85,297.14Zm0,5a2,2,0,1,1,2-2A2,2,0,0,1,147.85,302.11Zm26.45-5a2.94,2.94,0,1,0,3,3A2.95,2.95,0,0,0,174.3,297.14Zm0,5a2,2,0,1,1,0-4,2,2,0,1,1,0,4Zm26.5-5a2.94,2.94,0,1,0,0,5.87,2.94,2.94,0,0,0,0-5.87Zm0,5a2,2,0,1,1,0-4,2,2,0,0,1,0,4Zm-92.68-24.86h0l-.48,1a1.68,1.68,0,0,1,.5-.07,2,2,0,0,1,0,4,2,2,0,0,1-1.81-1.23l-.48,1a2.94,2.94,0,1,0,2.29-4.76Zm26.49,0a2.94,2.94,0,1,0,2.94,2.95A2.95,2.95,0,0,0,134.61,277.25Zm0,5a2,2,0,1,1,2-2A2,2,0,0,1,134.61,282.22Zm26.44-5a2.94,2.94,0,1,0,3,2.95A2.93,2.93,0,0,0,161.05,277.25Zm0,5a2,2,0,1,1,2-2A2,2,0,0,1,161.05,282.22Zm26.49-5a2.94,2.94,0,1,0,3,2.95A3,3,0,0,0,187.54,277.25Zm0,5a2,2,0,1,1,2-2A2,2,0,0,1,187.54,282.22ZM94.9,337.36a2.94,2.94,0,1,0,2.93,2.94A2.93,2.93,0,0,0,94.9,337.36Zm0,4.95a2,2,0,0,1-2-2,2,2,0,0,1,4,0A2,2,0,0,1,94.9,342.31Zm26.47-4.95a2.94,2.94,0,1,0,2.94,2.94A2.94,2.94,0,0,0,121.37,337.36Zm0,4.95a2,2,0,0,1-2-2,2,2,0,0,1,4,0A2,2,0,0,1,121.37,342.31Zm26.48-4.95a2.94,2.94,0,1,0,2.93,2.94A2.94,2.94,0,0,0,147.85,337.36Zm0,4.95a2,2,0,0,1-2-2,2,2,0,0,1,4,0A2,2,0,0,1,147.85,342.31Zm26.48-4.95a2.94,2.94,0,1,0,2.93,2.94A2.94,2.94,0,0,0,174.33,337.36Zm0,4.95a2,2,0,0,1-2-2,2,2,0,0,1,2-2,2,2,0,0,1,2,2A2,2,0,0,1,174.33,342.31Zm26.49-4.95a2.94,2.94,0,1,0,2.92,2.94A2.94,2.94,0,0,0,200.82,337.36Zm0,4.95a2,2,0,0,1-2-2,2,2,0,0,1,4,0A2,2,0,0,1,200.82,342.31Zm-92.7-24.86a2.94,2.94,0,1,0,2.95,3A2.95,2.95,0,0,0,108.12,317.45Zm0,5a2,2,0,1,1,2-2A2,2,0,0,1,108.12,322.42Zm26.49-5a2.94,2.94,0,1,0,2.94,3A3,3,0,0,0,134.61,317.45Zm0,5a2,2,0,1,1,2-2A2,2,0,0,1,134.61,322.42Zm26.44-5a2.94,2.94,0,1,0,3,3A2.93,2.93,0,0,0,161.05,317.45Zm0,5a2,2,0,1,1,2-2A2,2,0,0,1,161.05,322.42Zm26.49-5a2.94,2.94,0,1,0,3,3A3,3,0,0,0,187.54,317.45Zm0,5a2,2,0,1,1,2-2A2,2,0,0,1,187.54,322.42Zm-13.3,55.13a2.88,2.88,0,0,0-1.68.54l3.56.13A2.93,2.93,0,0,0,174.24,377.55Zm26.45,0a2.93,2.93,0,0,0-2.55,1.52l1.11,0a2,2,0,0,1,1.44-.62,2.06,2.06,0,0,1,1.58.74l1.11,0A3,3,0,0,0,200.69,377.55Zm-119-19.89a2.94,2.94,0,1,0,3,2.95A2.95,2.95,0,0,0,81.66,357.66Zm0,4.95a2,2,0,1,1,2-2A2,2,0,0,1,81.66,362.61Zm26.46-4.95a2.94,2.94,0,1,0,2.95,2.95A2.94,2.94,0,0,0,108.12,357.66Zm0,4.95a2,2,0,1,1,2-2A2,2,0,0,1,108.12,362.61Zm26.49-4.95a2.94,2.94,0,1,0,2.94,2.95A2.95,2.95,0,0,0,134.61,357.66Zm0,4.95a2,2,0,1,1,2-2A2,2,0,0,1,134.61,362.61Zm26.46-4.95a2.94,2.94,0,1,0,3,2.95A2.95,2.95,0,0,0,161.07,357.66Zm0,4.95a2,2,0,1,1,2-2A2,2,0,0,1,161.07,362.61Zm26.47-4.95a2.94,2.94,0,1,0,3,2.95A2.95,2.95,0,0,0,187.54,357.66Zm0,4.95a2,2,0,1,1,2-2A2,2,0,0,1,187.54,362.61Z" style="opacity:0.2"></path><path d="M176.63,246.63c-8,.19-18.56-14.17-21.73-24.67-.21-.72,2.22-7.31,4.78-15.45,1.54-4.95,3.14-10.5,4.23-15.67.22-1.06,30.75,14.72,30.75,14.72s-5.48,10.16-7.33,19.18a12.88,12.88,0,0,0-.22,2.17c0,.1,0,.22,0,.36C186.89,231.43,184.34,246.44,176.63,246.63Z" style="fill:#774442"></path><path d="M162,198.66c8,19.87,22.93,21.65,26.44,21.79a92.57,92.57,0,0,1,6.22-14.89s-30.53-15.78-30.74-14.71C163.36,193.4,162.7,196.05,162,198.66Z" style="fill:#263238"></path><path d="M154.72,152.92c-3.45,11.78,3.13,45.64,11.57,53.11,12.24,10.83,32.07,11.65,41.22-3,8.88-14.21-.49-58.18-9.89-65C183.76,128.1,159.82,135.51,154.72,152.92Z" style="fill:#774442"></path><path d="M188,175.08c0-.09-.15.14-.13.23.5,2.27.7,5-1.22,6.1-.06,0,0,.15,0,.13C189.18,180.71,188.89,177.15,188,175.08Z" style="fill:#263238"></path><path d="M185.55,173.08c-3.72.42-2.61,7.83.84,7.45S188.68,172.73,185.55,173.08Z" style="fill:#263238"></path><path d="M201.45,172.59c0-.09.19.08.2.18.27,2.31,1,4.9,3.16,5.36.07,0,.08.13,0,.13C202.22,178.28,201.33,174.82,201.45,172.59Z" style="fill:#263238"></path><path d="M203.14,169.88c3.65-.83,5.05,6.54,1.66,7.31S200.08,170.58,203.14,169.88Z" style="fill:#263238"></path><path d="M182.78,169.1c1-.34,1.86-.83,2.81-1.26a4.94,4.94,0,0,0,2.62-1.84,1.57,1.57,0,0,0-.41-1.89c-1.21-.9-2.67-.62-4-.07a5.77,5.77,0,0,0-3.1,2.77A1.69,1.69,0,0,0,182.78,169.1Z" style="fill:#263238"></path><path d="M205.45,165.72a28.59,28.59,0,0,1-3.06-.32,5,5,0,0,1-3.06-.93,1.58,1.58,0,0,1-.2-1.93c.87-1.23,2.35-1.41,3.77-1.31a5.8,5.8,0,0,1,3.81,1.67A1.69,1.69,0,0,1,205.45,165.72Z" style="fill:#263238"></path><path d="M188.52,195.87c.63.45,1.29,1.11,2.13,1.06a6,6,0,0,0,2.39-1,.08.08,0,0,1,.11.11,3.11,3.11,0,0,1-2.73,1.68,2.48,2.48,0,0,1-2.11-1.76C188.26,195.88,188.43,195.8,188.52,195.87Z" style="fill:#263238"></path><path d="M189.91,188.63a7.89,7.89,0,0,0,5.74,2.7,9.7,9.7,0,0,0,2.83-.29,2.94,2.94,0,0,0,.53-.14c.16-.05.31-.09.49-.16a.59.59,0,0,0,.39-.58v0a1,1,0,0,0,0-.23h0l0-.21c-.22-1.77-.79-4.44-.79-4.44.69.23,4.21,1.22,4,.3-1.6-7.58-3.38-16-6.57-23.22a.21.21,0,0,0-.41.12c1.25,7.35,3.78,14.43,5.15,21.79a14.15,14.15,0,0,0-3.86-.57c-.24.11,1.2,5.13,1.24,5.94a.45.45,0,0,1,0,.08c-2.91.83-5.29.27-8.47-1.3C189.9,188.28,189.74,188.47,189.91,188.63Z" style="fill:#263238"></path><path d="M151.71,184.35c9.5.19,13.88-11.35,11.21-20.33,0,0,25.35,2.08,25.54-18.2a19.86,19.86,0,0,0,16.83,8.25l2.7,6.81c2.55-.87,5.42-7.85-1.19-13.29,0,0-.94-10.06-8.68-15.74a13.79,13.79,0,0,0-14.91-1.33,20.9,20.9,0,0,0-15.38-3c-9.22,1.65-12.61,10.31-12.61,10.31s-12.36,3-14,12a18.39,18.39,0,0,0,3.2,14.68s-3,3.64-1,11.12C144.66,180.44,148.85,184.29,151.71,184.35Z" style="fill:#263238"></path><path d="M187.82,144.05a24.08,24.08,0,0,1,.3,4.94,19.94,19.94,0,0,1-.67,4.82,12.81,12.81,0,0,1-5.47,7.55c-2.63,1.88-6,2.32-9.17,2.79-1.63,0-3.28.19-4.93.13s-3.29-.21-5-.26c1.63.31,3.28.55,4.93.83s3.34.13,5,.2c3.32-.3,6.81-.76,9.74-2.71a13.34,13.34,0,0,0,5.7-8.31A20.17,20.17,0,0,0,187.82,144.05Z" style="fill:#263238"></path><path d="M201.39,155.09a26.2,26.2,0,0,1-7.85-3.73,16.25,16.25,0,0,1-3.1-2.93,19.71,19.71,0,0,1-2.31-3.72,10.66,10.66,0,0,0,1.58,4.24,11.66,11.66,0,0,0,3.14,3.35,14.51,14.51,0,0,0,4.08,2.06A13.63,13.63,0,0,0,201.39,155.09Z" style="fill:#263238"></path><path d="M164.8,184.1s-8-10.72-12.9-7.83,1.38,18.6,7.29,20.6a6,6,0,0,0,7.86-3.45Z" style="fill:#774442"></path><path d="M153.81,180.73c-.1,0-.11.13,0,.16,4.15,1.53,6.43,5.26,8.06,9.15-1.27-1.48-3-2.26-4.93-.74-.11.07,0,.24.11.21a3.67,3.67,0,0,1,4.07,1.15,17.91,17.91,0,0,1,2,3.19c.21.36.86.15.71-.27a1,1,0,0,1,0-.1C163.72,188.26,159.43,181.08,153.81,180.73Z" style="fill:#263238"></path><path d="M146,254.37c9.32,16.32,54.8,82.63,75.23,86.76,32,6.46,68.56.28,89.19-1.06,11.22-.72,5.18-61.52-7.13-58.89-20.12,4.31-60.52,1.54-66.38,2.08s-47.46-27.47-71.77-44.2C144,224.5,132.28,230.31,146,254.37Z" style="fill:#774442"></path><path d="M299,286.89s16.4-15.3,27.5-20.66c14.87-7.19,30.66-7.27,37.28-6.91,13.82.76,46.71,12.16,45.08,22.2-1.47,9.09-34.5-4.25-34.5-4.25s35.92,8.05,32.13,18.67-41.25-7.05-41.25-7.05,36.72,9.1,31.08,19.43C392,316.14,357.2,302,357.2,302s31.51,8,27.47,16.26c-4.46,9.09-37.43-1.91-37.43-1.91-13.77,19.17-28.18,22.66-38.72,23.93C306,340.62,299,286.89,299,286.89Z" style="fill:#774442"></path><path d="M360.7,272.66c4.25.79,8.56,1.57,12.73,2.74s8.3,2.48,12.34,4c9.91,3.8,15.53,7.74,15.15,7.53-8.82-4.85-23.68-9.26-27.85-10.43s-8.26-2.54-12.42-3.71C360.54,272.79,360.6,272.64,360.7,272.66Z" style="fill:#263238"></path><path d="M356.21,287.64c5.38,1.24,10.78,2.28,16.11,3.77s10.22,3.35,15.41,5.19c.4.14.19.31-.22.18-5.26-1.63-10.25-2.73-15.53-4.3s-10.5-3.35-15.81-4.72C356.08,287.74,356.12,287.62,356.21,287.64Z" style="fill:#263238"></path><path d="M350,299.8c8.33,1.48,16.38,4.5,24.2,7.65.39.16.1.35-.31.21-8-2.7-14.25-4.87-23.94-7.57C349.84,300,349.86,299.77,350,299.8Z" style="fill:#263238"></path><path d="M196.37,256l-31.62,33.47S144.68,261.63,139,243.9c-4-12.56-3.41-25.83,23.32-10.81S196.37,256,196.37,256Z" style="fill:#FFC727"></path><path d="M161.05,277.25a2.91,2.91,0,0,0-2.87,2.58c.75,1.15,1.46,2.21,2.12,3.19a3.08,3.08,0,0,0,.75.1,2.94,2.94,0,1,0,0-5.87Zm0,5a2,2,0,1,1,2-2A2,2,0,0,1,161.05,282.22Zm0-45.16a2.94,2.94,0,1,0,3,2.94A2.93,2.93,0,0,0,161.05,237.06Zm0,4.95a2,2,0,0,1-2-2,2,2,0,0,1,2-2,2,2,0,0,1,2,2A2,2,0,0,1,161.05,242ZM174.3,257a2.94,2.94,0,1,0,3,2.94A2.94,2.94,0,0,0,174.3,257Zm0,5a2,2,0,0,1-2-2,2,2,0,1,1,2,2Zm-26.45-5a3,3,0,0,0-2.51,1.39l.56,1.06a2,2,0,0,1,1.95-1.51,2,2,0,0,1,2,2,2,2,0,0,1-2,2,2.2,2.2,0,0,1-.64-.1c.19.33.37.66.55,1h.09a2.94,2.94,0,0,0,0-5.87Z" style="opacity:0.2"></path><path d="M162.35,279.46a72.17,72.17,0,0,1,5.86-6.74c2-2.18,4.07-4.33,6.12-6.47s4.16-4.31,6.29-6.41,4.48-4.19,6.72-6.29c.13-.12.35.07.23.21-2,2.24-3.84,4.54-5.87,6.74s-4.07,4.31-6.13,6.46-4.17,4.3-6.29,6.41a73.78,73.78,0,0,1-6.73,6.27A.14.14,0,0,1,162.35,279.46Z" style="fill:#263238"></path><path d="M179.87,243.62a79.52,79.52,0,0,1,8.81,5.43q2.12,1.48,4.13,3.13a26.3,26.3,0,0,1,3.76,3.63l.16.2-.17.15c-.82.75-1.62,1.51-2.47,2.23.67-.88,1.39-1.73,2.09-2.59v.35a42.92,42.92,0,0,0-3.93-3.25l-4.13-3.06C185.34,247.81,182.57,245.78,179.87,243.62Z" style="fill:#263238"></path><path d="M168.28,285.72c-1.1,1.32-2.24,2.6-3.36,3.9l-.17.2-.19-.21c-2-2.34-3.91-4.73-5.7-7.22s-3.51-5-5.13-7.62-3.15-5.26-4.54-8a87.28,87.28,0,0,1-3.81-8.35c1.46,2.69,2.88,5.39,4.42,8s3.12,5.24,4.76,7.81,3.31,5.11,5,7.62,3.48,5,5.33,7.43h-.36C165.81,288.1,167,286.89,168.28,285.72Z" style="fill:#263238"></path><path d="M145.63,264a20.45,20.45,0,0,1,2.68,2.19,25.86,25.86,0,0,1,2.36,2.53,9.92,9.92,0,0,1-2.88-2A11.32,11.32,0,0,1,145.63,264Z" style="fill:#263238"></path></g></svg>